<?xml version="1.0" encoding="UTF-8"?>
<svg xmlns="http://www.w3.org/2000/svg" xmlns:xlink="http://www.w3.org/1999/xlink" viewBox="0 0 3710 3710">
  <defs>
    <style>
      .cls-1 {
        fill: url(#linear-gradient-75);
      }

      .cls-2 {
        opacity: .68;
      }

      .cls-3 {
        fill: url(#linear-gradient-2);
      }

      .cls-4 {
        fill: url(#linear-gradient-51);
      }

      .cls-5, .cls-6, .cls-7, .cls-8 {
        fill: #fff;
      }

      .cls-9 {
        fill: url(#linear-gradient-17);
      }

      .cls-10 {
        fill: url(#linear-gradient-43);
      }

      .cls-11 {
        fill: url(#linear-gradient-15);
      }

      .cls-12 {
        fill: url(#linear-gradient-58);
      }

      .cls-13 {
        fill: url(#linear-gradient-69);
      }

      .cls-14 {
        fill: url(#linear-gradient-18);
      }

      .cls-15, .cls-8 {
        opacity: .6;
      }

      .cls-16 {
        fill: url(#linear-gradient-56);
      }

      .cls-17 {
        fill: url(#linear-gradient-40);
      }

      .cls-18 {
        fill: url(#linear-gradient-52);
      }

      .cls-19 {
        fill: url(#linear-gradient-28);
      }

      .cls-20 {
        opacity: .1;
      }

      .cls-20, .cls-21 {
        fill: #91b3fa;
      }

      .cls-22 {
        fill: url(#linear-gradient-14);
      }

      .cls-23 {
        fill: url(#linear-gradient-36);
      }

      .cls-24 {
        fill: url(#linear-gradient-20);
      }

      .cls-25 {
        fill: url(#linear-gradient-6);
      }

      .cls-26 {
        fill: url(#linear-gradient-53);
      }

      .cls-27 {
        isolation: isolate;
      }

      .cls-28 {
        fill: url(#linear-gradient-60);
      }

      .cls-29 {
        fill: url(#linear-gradient-35);
      }

      .cls-30 {
        fill: url(#linear-gradient-48);
      }

      .cls-31 {
        fill: url(#linear-gradient-32);
      }

      .cls-32 {
        fill: url(#linear-gradient-11);
      }

      .cls-33 {
        fill: url(#linear-gradient-50);
      }

      .cls-34 {
        fill: url(#linear-gradient-63);
      }

      .cls-35 {
        fill: url(#linear-gradient-67);
      }

      .cls-36 {
        fill: url(#linear-gradient-39);
      }

      .cls-37 {
        fill: url(#linear-gradient-10);
      }

      .cls-6 {
        mix-blend-mode: soft-light;
      }

      .cls-38 {
        fill: url(#linear-gradient-59);
      }

      .cls-39 {
        fill: url(#linear-gradient-49);
      }

      .cls-40 {
        fill: url(#linear-gradient-37);
      }

      .cls-41 {
        fill: url(#linear-gradient-16);
      }

      .cls-42 {
        fill: url(#linear-gradient-31);
      }

      .cls-43 {
        fill: #7d97f4;
      }

      .cls-44 {
        fill: url(#linear-gradient-61);
      }

      .cls-45 {
        fill: url(#linear-gradient-68);
      }

      .cls-46 {
        fill: url(#linear-gradient-62);
      }

      .cls-47 {
        fill: url(#linear-gradient-41);
      }

      .cls-48 {
        fill: url(#linear-gradient-76);
      }

      .cls-7 {
        opacity: .37;
      }

      .cls-49 {
        fill: url(#linear-gradient-21);
      }

      .cls-50 {
        fill: url(#linear-gradient-72);
      }

      .cls-51 {
        fill: url(#linear-gradient-25);
      }

      .cls-52 {
        fill: url(#linear-gradient-5);
      }

      .cls-53 {
        fill: url(#linear-gradient-64);
      }

      .cls-54 {
        fill: url(#linear-gradient-54);
      }

      .cls-55 {
        fill: url(#linear-gradient-45);
      }

      .cls-56 {
        fill: url(#linear-gradient-55);
      }

      .cls-57 {
        fill: url(#linear-gradient-34);
      }

      .cls-58 {
        fill: url(#linear-gradient-65);
      }

      .cls-59 {
        fill: url(#linear-gradient-70);
      }

      .cls-60 {
        fill: url(#linear-gradient-7);
      }

      .cls-61 {
        fill: url(#linear-gradient-66);
      }

      .cls-62 {
        fill: url(#linear-gradient-24);
      }

      .cls-63 {
        fill: url(#linear-gradient-73);
      }

      .cls-64 {
        fill: url(#linear-gradient-9);
      }

      .cls-65 {
        fill: url(#linear-gradient-22);
      }

      .cls-66 {
        fill: url(#linear-gradient-74);
      }

      .cls-67 {
        fill: url(#linear-gradient-42);
      }

      .cls-68 {
        fill: url(#linear-gradient-3);
      }

      .cls-69 {
        fill: url(#linear-gradient);
      }

      .cls-70 {
        fill: url(#linear-gradient-27);
      }

      .cls-71 {
        fill: url(#linear-gradient-33);
      }

      .cls-72 {
        fill: url(#linear-gradient-38);
      }

      .cls-73 {
        fill: url(#linear-gradient-29);
      }

      .cls-74 {
        fill: url(#linear-gradient-30);
      }

      .cls-75 {
        fill: #bdd0fb;
      }

      .cls-76 {
        fill: url(#linear-gradient-23);
      }

      .cls-77 {
        fill: url(#linear-gradient-19);
      }

      .cls-78 {
        fill: url(#linear-gradient-71);
      }

      .cls-79 {
        fill: url(#linear-gradient-4);
      }

      .cls-80 {
        fill: url(#linear-gradient-8);
      }

      .cls-81 {
        fill: url(#linear-gradient-44);
      }

      .cls-82 {
        fill: url(#linear-gradient-57);
      }

      .cls-83 {
        fill: url(#linear-gradient-47);
      }

      .cls-84 {
        fill: url(#linear-gradient-46);
      }

      .cls-85 {
        fill: url(#linear-gradient-12);
      }

      .cls-86 {
        fill: url(#linear-gradient-13);
      }

      .cls-87 {
        fill: url(#linear-gradient-26);
      }
    </style>
    <linearGradient id="linear-gradient" x1="3590.89" y1="4076.03" x2="1125.71" y2="1014.42" gradientUnits="userSpaceOnUse">
      <stop offset="0" stop-color="#dae3fe"/>
      <stop offset="1" stop-color="#e9effd"/>
    </linearGradient>
    <linearGradient id="linear-gradient-2" x1="1409.43" y1="2116.83" x2="3113.32" y2="2116.83" gradientUnits="userSpaceOnUse">
      <stop offset="0" stop-color="#4f52ff"/>
      <stop offset="1" stop-color="#4042e2"/>
    </linearGradient>
    <linearGradient id="linear-gradient-3" x1="2017.03" y1="1907.37" x2="1421.77" y2="2690.41" gradientTransform="translate(-465.03 6.15) rotate(-32.89)" gradientUnits="userSpaceOnUse">
      <stop offset="0" stop-color="#09005d"/>
      <stop offset="1" stop-color="#1a0f91"/>
    </linearGradient>
    <linearGradient id="linear-gradient-4" x1="-979.97" y1="4130.27" x2="-1585.03" y2="4926.21" gradientTransform="translate(915.33 -3470.6) rotate(179.04) scale(1 -1)" xlink:href="#linear-gradient-3"/>
    <linearGradient id="linear-gradient-5" x1="-1056.22" y1="4178.96" x2="-1474" y2="4946.09" gradientTransform="translate(915.33 -3470.6) rotate(179.04) scale(1 -1)" xlink:href="#linear-gradient-3"/>
    <linearGradient id="linear-gradient-6" x1="-1687.95" y1="4453.8" x2="-2352.55" y2="5588.12" gradientTransform="translate(1393.62 -3354.32) rotate(-172.06) scale(1 -1)" gradientUnits="userSpaceOnUse">
      <stop offset="0" stop-color="#ff928e"/>
      <stop offset="1" stop-color="#fe7062"/>
    </linearGradient>
    <linearGradient id="linear-gradient-7" x1="-1627.55" y1="4105.08" x2="-2292.15" y2="5239.41" xlink:href="#linear-gradient-6"/>
    <linearGradient id="linear-gradient-8" x1="-1713.35" y1="4758.89" x2="-2377.96" y2="5893.22" xlink:href="#linear-gradient-6"/>
    <linearGradient id="linear-gradient-9" x1="-1766.56" y1="5045.13" x2="-2431.17" y2="6179.46" xlink:href="#linear-gradient-6"/>
    <linearGradient id="linear-gradient-10" x1="3242.51" y1="2115.63" x2="2677.15" y2="2398.31" gradientTransform="matrix(1, 0, 0, 1, 0, 0)" xlink:href="#linear-gradient-6"/>
    <linearGradient id="linear-gradient-11" x1="-514.43" y1="2648.43" x2="-805.54" y2="3071.45" gradientTransform="translate(1563.55) rotate(-180) scale(1 -1)" xlink:href="#linear-gradient-3"/>
    <linearGradient id="linear-gradient-12" x1="-503.97" y1="2655.63" x2="-795.08" y2="3078.65" gradientTransform="translate(1563.55) rotate(-180) scale(1 -1)" xlink:href="#linear-gradient-3"/>
    <linearGradient id="linear-gradient-13" x1="-491.34" y1="2664.32" x2="-782.45" y2="3087.34" gradientTransform="translate(1563.55) rotate(-180) scale(1 -1)" xlink:href="#linear-gradient-3"/>
    <linearGradient id="linear-gradient-14" x1="-469.49" y1="2679.36" x2="-760.6" y2="3102.38" gradientTransform="translate(1563.55) rotate(-180) scale(1 -1)" xlink:href="#linear-gradient-3"/>
    <linearGradient id="linear-gradient-15" x1="-455.09" y1="2689.27" x2="-746.2" y2="3112.29" gradientTransform="translate(1563.55) rotate(-180) scale(1 -1)" xlink:href="#linear-gradient-3"/>
    <linearGradient id="linear-gradient-16" x1="-446.14" y1="2695.42" x2="-737.25" y2="3118.44" gradientTransform="translate(1563.55) rotate(-180) scale(1 -1)" xlink:href="#linear-gradient-3"/>
    <linearGradient id="linear-gradient-17" x1="-529.41" y1="2638.12" x2="-820.52" y2="3061.14" gradientTransform="translate(1563.55) rotate(-180) scale(1 -1)" xlink:href="#linear-gradient-3"/>
    <linearGradient id="linear-gradient-18" x1="2042.54" y1="1855.56" x2="1663.95" y2="2542.06" gradientTransform="matrix(1, 0, 0, 1, 0, 0)" xlink:href="#linear-gradient-6"/>
    <linearGradient id="linear-gradient-19" x1="-498.95" y1="2090.77" x2="-703.39" y2="2387.85" gradientTransform="translate(1563.55) rotate(-180) scale(1 -1)" xlink:href="#linear-gradient-3"/>
    <linearGradient id="linear-gradient-20" x1="-491.6" y1="2095.83" x2="-696.04" y2="2392.91" gradientTransform="translate(1563.55) rotate(-180) scale(1 -1)" xlink:href="#linear-gradient-3"/>
    <linearGradient id="linear-gradient-21" x1="-482.73" y1="2101.93" x2="-687.17" y2="2399.01" gradientTransform="translate(1563.55) rotate(-180) scale(1 -1)" xlink:href="#linear-gradient-3"/>
    <linearGradient id="linear-gradient-22" x1="-467.38" y1="2112.49" x2="-671.82" y2="2409.57" gradientTransform="translate(1563.55) rotate(-180) scale(1 -1)" xlink:href="#linear-gradient-3"/>
    <linearGradient id="linear-gradient-23" x1="-457.27" y1="2119.45" x2="-661.71" y2="2416.53" gradientTransform="translate(1563.55) rotate(-180) scale(1 -1)" xlink:href="#linear-gradient-3"/>
    <linearGradient id="linear-gradient-24" x1="-450.99" y1="2123.78" x2="-655.43" y2="2420.85" gradientTransform="translate(1563.55) rotate(-180) scale(1 -1)" xlink:href="#linear-gradient-3"/>
    <linearGradient id="linear-gradient-25" x1="-509.47" y1="2083.53" x2="-713.91" y2="2380.61" gradientTransform="translate(1563.55) rotate(-180) scale(1 -1)" xlink:href="#linear-gradient-3"/>
    <linearGradient id="linear-gradient-26" x1="1716.84" y1="2652.6" x2="1095.96" y2="3248.24" gradientTransform="matrix(1, 0, 0, 1, 0, 0)" xlink:href="#linear-gradient-6"/>
    <linearGradient id="linear-gradient-27" x1="-20.37" y1="2817.37" x2="-225.15" y2="3114.94" gradientTransform="translate(1563.55) rotate(-180) scale(1 -1)" xlink:href="#linear-gradient-3"/>
    <linearGradient id="linear-gradient-28" x1="-14.66" y1="2822.57" x2="-218.89" y2="3119.34" gradientTransform="translate(1563.55) rotate(-180) scale(1 -1)" xlink:href="#linear-gradient-3"/>
    <linearGradient id="linear-gradient-29" x1="-7.52" y1="2828.61" x2="-212.03" y2="3125.78" gradientTransform="translate(1563.55) rotate(-180) scale(1 -1)" xlink:href="#linear-gradient-3"/>
    <linearGradient id="linear-gradient-30" x1="4.7" y1="2839.35" x2="-198.76" y2="3134.98" gradientTransform="translate(1563.55) rotate(-180) scale(1 -1)" xlink:href="#linear-gradient-3"/>
    <linearGradient id="linear-gradient-31" x1="12.83" y1="2846.24" x2="-190.84" y2="3142.2" gradientTransform="translate(1563.55) rotate(-180) scale(1 -1)" xlink:href="#linear-gradient-3"/>
    <linearGradient id="linear-gradient-32" x1="17.92" y1="2850.46" x2="-186.58" y2="3147.61" gradientTransform="translate(1563.55) rotate(-180) scale(1 -1)" xlink:href="#linear-gradient-3"/>
    <linearGradient id="linear-gradient-33" x1="-28.78" y1="2810.38" x2="-232.7" y2="3106.71" gradientTransform="translate(1563.55) rotate(-180) scale(1 -1)" xlink:href="#linear-gradient-3"/>
    <linearGradient id="linear-gradient-34" x1="797.35" y1="1035.35" x2="-420.54" y2="2593.54" gradientTransform="translate(1074.08)" gradientUnits="userSpaceOnUse">
      <stop offset="0" stop-color="#febbba"/>
      <stop offset="1" stop-color="#ff928e"/>
    </linearGradient>
    <linearGradient id="linear-gradient-35" x1="937.34" y1="1442.53" x2="251.38" y2="2320.15" xlink:href="#linear-gradient-34"/>
    <linearGradient id="linear-gradient-36" x1="863" y1="3034.68" x2="908.02" y2="3253.62" gradientTransform="translate(2064.65) rotate(-180) scale(1 -1)" xlink:href="#linear-gradient-2"/>
    <linearGradient id="linear-gradient-37" x1="2991.84" y1="3126.56" x2="3057.47" y2="3126.56" gradientTransform="translate(-1951.73)" xlink:href="#linear-gradient-34"/>
    <linearGradient id="linear-gradient-38" x1="2690.4" y1="1382.2" x2="3017.87" y2="2805.55" gradientTransform="translate(-1951.73)" xlink:href="#linear-gradient-3"/>
    <linearGradient id="linear-gradient-39" x1="1223.86" y1="3046.08" x2="1221.81" y2="3262.97" gradientTransform="translate(2064.65) rotate(-180) scale(1 -1)" xlink:href="#linear-gradient-2"/>
    <linearGradient id="linear-gradient-40" x1="2755.3" y1="3123.2" x2="2811.97" y2="3123.2" gradientTransform="translate(-1951.73)" xlink:href="#linear-gradient-34"/>
    <linearGradient id="linear-gradient-41" x1="2581.51" y1="1381.9" x2="2913.19" y2="2823.58" gradientTransform="translate(-1951.73)" xlink:href="#linear-gradient-3"/>
    <linearGradient id="linear-gradient-42" x1="722.12" y1="2622.36" x2="1469.01" y2="3335.74" gradientTransform="translate(1074.08)" xlink:href="#linear-gradient-3"/>
    <linearGradient id="linear-gradient-43" x1="2849" y1="1492.18" x2="2996.55" y2="1492.18" gradientTransform="translate(-1951.73)" xlink:href="#linear-gradient-34"/>
    <linearGradient id="linear-gradient-44" x1="-3028.8" y1="247.47" x2="-3083.93" y2="65.61" gradientTransform="translate(3174.61 -803.17) rotate(-41.75)" xlink:href="#linear-gradient-34"/>
    <linearGradient id="linear-gradient-45" x1="-3091.46" y1="-25.26" x2="-3052.69" y2="195.87" gradientTransform="translate(3174.61 -803.17) rotate(-41.75)" xlink:href="#linear-gradient-3"/>
    <linearGradient id="linear-gradient-46" x1="-3085.16" y1="246.62" x2="-3134.77" y2="83" gradientTransform="translate(3174.61 -803.17) rotate(-41.75)" xlink:href="#linear-gradient-34"/>
    <linearGradient id="linear-gradient-47" x1="-4112.85" y1="8550.63" x2="-4393.74" y2="8793.22" gradientTransform="translate(5253.06) rotate(-180) scale(1 -1)" xlink:href="#linear-gradient-3"/>
    <linearGradient id="linear-gradient-48" x1="832.73" y1="1225.59" x2="551.84" y2="1468.19" gradientTransform="translate(293.43)" xlink:href="#linear-gradient-3"/>
    <linearGradient id="linear-gradient-49" x1="655.51" y1="2692.1" x2="1402.4" y2="3405.48" gradientTransform="translate(1074.08)" xlink:href="#linear-gradient-3"/>
    <linearGradient id="linear-gradient-50" x1="4612.73" y1="1929.11" x2="5031.08" y2="1929.11" gradientTransform="translate(-4024.83)" xlink:href="#linear-gradient-34"/>
    <linearGradient id="linear-gradient-51" x1="1753.73" y1="1310.39" x2="1450.86" y2="1577.92" gradientTransform="matrix(1, 0, 0, 1, 0, 0)" xlink:href="#linear-gradient-6"/>
    <linearGradient id="linear-gradient-52" x1="5256.3" y1="1679.87" x2="5207.3" y2="1895.01" gradientTransform="translate(-4024.83)" xlink:href="#linear-gradient-6"/>
    <linearGradient id="linear-gradient-53" x1="5243.84" y1="1764" x2="5220.41" y2="1904.58" gradientTransform="translate(-4024.83)" xlink:href="#linear-gradient-6"/>
    <linearGradient id="linear-gradient-54" x1="5000.02" y1="1885.24" x2="5130.36" y2="1885.24" gradientTransform="translate(-4024.83)" xlink:href="#linear-gradient-34"/>
    <linearGradient id="linear-gradient-55" x1="-298.04" y1="1467.61" x2="-329.96" y2="1955.99" gradientTransform="translate(558.39) rotate(-180) scale(1 -1)" xlink:href="#linear-gradient-3"/>
    <linearGradient id="linear-gradient-56" x1="-97.12" y1="1442.11" x2="-307.79" y2="1735.77" gradientTransform="translate(558.39) rotate(-180) scale(1 -1)" xlink:href="#linear-gradient-3"/>
    <linearGradient id="linear-gradient-57" x1="1420.64" y1="166" x2="1339.87" y2="337.63" gradientTransform="matrix(1, 0, 0, 1, 0, 0)" xlink:href="#linear-gradient-6"/>
    <linearGradient id="linear-gradient-58" x1="1220.77" y1="731.21" x2="418.17" y2="1422.76" gradientTransform="matrix(1, 0, 0, 1, 0, 0)" xlink:href="#linear-gradient-6"/>
    <linearGradient id="linear-gradient-59" x1="762.64" y1="285.04" x2="671.78" y2="613.15" gradientTransform="matrix(1, 0, 0, 1, 0, 0)" xlink:href="#linear-gradient-6"/>
    <linearGradient id="linear-gradient-60" x1="567.32" y1="769.15" x2="728.87" y2="1206.13" gradientTransform="translate(174.89 148.63) rotate(5.94)" xlink:href="#linear-gradient-6"/>
    <linearGradient id="linear-gradient-61" x1="1265.03" y1="1601.63" x2="1219.6" y2="1263.42" gradientTransform="matrix(1, 0, 0, 1, 0, 0)" xlink:href="#linear-gradient-6"/>
    <linearGradient id="linear-gradient-62" x1="959.13" y1="1078.73" x2="1211.52" y2="785.95" gradientTransform="matrix(1, 0, 0, 1, 0, 0)" xlink:href="#linear-gradient-6"/>
    <linearGradient id="linear-gradient-63" x1="1495.49" y1="854.69" x2="2101.23" y2="561.92" gradientTransform="matrix(1, 0, 0, 1, 0, 0)" xlink:href="#linear-gradient-6"/>
    <linearGradient id="linear-gradient-64" x1="607.91" y1="647.06" x2="1148.03" y2="394.67" gradientTransform="matrix(1, 0, 0, 1, 0, 0)" xlink:href="#linear-gradient-6"/>
    <linearGradient id="linear-gradient-65" x1="1965.25" y1="342.63" x2="1618.19" y2="490.45" gradientTransform="translate(-214.2 104.78) rotate(1.21)" xlink:href="#linear-gradient-3"/>
    <linearGradient id="linear-gradient-66" x1="1970.98" y1="360.48" x2="1623.91" y2="508.31" gradientTransform="translate(-214.2 104.78) rotate(1.21)" xlink:href="#linear-gradient-3"/>
    <linearGradient id="linear-gradient-67" x1="1976.7" y1="369.39" x2="1629.64" y2="517.21" gradientTransform="translate(-214.2 104.78) rotate(1.21)" xlink:href="#linear-gradient-3"/>
    <linearGradient id="linear-gradient-68" x1="1977.95" y1="382.77" x2="1630.89" y2="530.6" gradientTransform="translate(-214.2 104.78) rotate(1.21)" xlink:href="#linear-gradient-3"/>
    <linearGradient id="linear-gradient-69" x1="1988.15" y1="396.15" x2="1641.09" y2="543.98" gradientTransform="translate(-214.2 104.78) rotate(1.21)" xlink:href="#linear-gradient-3"/>
    <linearGradient id="linear-gradient-70" x1="1993.87" y1="409.53" x2="1646.81" y2="557.36" gradientTransform="translate(-214.2 104.78) rotate(1.21)" xlink:href="#linear-gradient-3"/>
    <linearGradient id="linear-gradient-71" x1="1999.6" y1="418.44" x2="1652.53" y2="566.27" gradientTransform="translate(-214.2 104.78) rotate(1.21)" xlink:href="#linear-gradient-3"/>
    <linearGradient id="linear-gradient-72" x1="2000.85" y1="436.3" x2="1653.78" y2="584.12" gradientTransform="translate(-214.2 104.78) rotate(1.21)" xlink:href="#linear-gradient-3"/>
    <linearGradient id="linear-gradient-73" x1="2006.57" y1="449.68" x2="1659.51" y2="597.5" gradientTransform="translate(-214.2 104.78) rotate(1.21)" xlink:href="#linear-gradient-3"/>
    <linearGradient id="linear-gradient-74" x1="2012.3" y1="458.59" x2="1665.23" y2="606.41" gradientTransform="translate(2047.71 -926.39) rotate(90.01)" xlink:href="#linear-gradient-3"/>
    <linearGradient id="linear-gradient-75" x1="2013.55" y1="476.44" x2="1666.49" y2="624.27" gradientTransform="translate(-214.2 104.78) rotate(1.21)" xlink:href="#linear-gradient-3"/>
    <linearGradient id="linear-gradient-76" x1="2029.18" y1="496.6" x2="1677.15" y2="646.54" gradientTransform="translate(-214.2 104.78) rotate(1.21)" xlink:href="#linear-gradient-3"/>
  </defs>
  <g class="cls-27">
    <g id="Illustration">
      <g>
        <path class="cls-69" d="M2916.71,2865.86c-56.84,59.46-110.63,97.81-153.12,128.1-499.52,356.12-1090.58,252.31-1216.2,226.96-185.5-37.43-544.06-109.79-803.29-412.7-392.2-458.27-331.13-1180.26-26.91-1656.85,55.65-87.18,349.58-571.03,947.01-648.63,361.56-46.96,783.02,47.75,1088.23,301.82,640.66,533.31,595.05,1610.7,164.29,2061.3Z"/>
        <g>
          <g>
            <path class="cls-21" d="M3201.23,500.93c3.41-14.5-16.99-24.14-29.48-14.01-126.84,102.85-431.6,410.86-355.65,949.12,95.29,675.33-67.62,921.75-270.41,1072.06,0,0,278.5-70.69,453.72-320.73,430.2-613.92,141.26-1428.61,201.83-1686.44Z"/>
            <path class="cls-6" d="M3104.7,711.87c-15.87,75.18-30.01,150.59-40.94,226.34-11.39,75.69-20.11,151.64-26.09,227.71-5.63,76.09-9.61,152.26-9.84,228.46-.62,76.2,2.55,152.33,6.04,228.76,2.99,76.4,6.51,153.36,.92,230.86-5.5,77.34-21.78,155.36-54.09,228.5-8.08,18.23-16.57,36.4-26.22,53.96-9.27,17.72-19.46,35.09-30,52.3-21.29,34.33-45.25,67.49-71.95,98.98-53.6,62.85-118.24,118.61-189.45,165.8-7.5,4.97-18.23,3.75-23.99-2.73-5.65-6.35-4.39-15.41,2.76-20.44l.05-.04c16.94-11.9,33.71-23.95,49.8-36.61,8.16-6.22,15.99-12.74,23.95-19.13,7.67-6.64,15.65-13.03,23.08-19.87,30.24-26.91,58.25-55.63,83.67-85.99,51.12-60.44,92.05-127.79,123.05-197.61,15.05-35.07,27.08-71.04,35.87-107.69,8.75-36.65,14.26-73.94,17.3-111.53,6.1-75.22,3.34-151.42,.99-227.83-2.24-76.44-3.89-153.26-1.87-230.03,.89-38.38,2.58-76.74,5.06-115.06,1.11-19.16,2.66-38.3,4.16-57.44,1.72-19.13,3.55-38.25,5.57-57.35,8.23-76.39,19.16-152.53,32.86-228.26,14.12-75.68,30.56-151,50.33-225.66,.57-2.13,3.03-3.47,5.5-2.98,2.4,.47,3.92,2.5,3.49,4.57Z"/>
          </g>
          <g>
            <path class="cls-75" d="M2876.17,1926.66c12,18.65,39.15,18.98,51.85,.79,70.04-100.36,242.41-402.02,126.04-808.17-98.27-342.97-118.97-538.28-122.22-627.6-.69-18.89-25.09-25.92-35.75-10.31-117.65,172.15-454.85,769.43-19.91,1445.29Z"/>
            <path class="cls-6" d="M2905.49,1920.15c.51,.19,1.05,.34,1.62,.44,4.71,.8,9.19-2.37,9.99-7.08,.91-5.34,89.68-540-25.42-1023.05-1.11-4.65-5.78-7.52-10.43-6.42-4.65,1.11-7.52,5.78-6.42,10.43,114.27,479.53,26.1,1010.82,25.2,1016.13-.71,4.15,1.67,8.12,5.47,9.55Z"/>
          </g>
        </g>
        <g>
          <ellipse class="cls-43" cx="1782.47" cy="1772.37" rx="1209.58" ry="1305.62" transform="translate(-66.37 3475.39) rotate(-87.49)"/>
          <ellipse class="cls-20" cx="1711.8" cy="1685.1" rx="1024.51" ry="967.83"/>
          <g class="cls-2">
            <path class="cls-6" d="M2116.01,1778.21c-.31,213.34-14.94,427.11-52.54,637.42-9.52,52.54-20.55,104.82-33.7,156.61-13.19,51.77-28.41,103.08-47.05,153.26-18.8,50.04-40.61,99.37-70.2,144.45-14.91,22.38-31.82,43.81-52.69,61.45-10.43,8.76-21.89,16.53-34.49,22.23-12.57,5.66-26.32,9.24-40.26,9.49-13.93,.41-27.88-2.32-40.7-7.48-12.87-5.11-24.61-12.53-35.29-21.01-21.37-17.09-38.65-38.29-53.82-60.49-30.11-44.76-52.22-93.98-71.22-143.95-18.88-50.09-34.25-101.37-47.55-153.1-13.28-51.75-24.42-104.01-34.02-156.53-19.15-105.06-32.22-211.13-41.03-317.49-8.75-106.38-13.14-213.1-13.68-319.83-.26-53.36,1.19-106.71,3.09-160.03,2-53.32,4.93-106.6,8.86-159.81,7.89-106.41,19.68-212.58,37.21-317.88,8.79-52.64,19.05-105.05,31.38-157.01,12.36-51.93,26.73-103.46,44.56-153.86,8.96-25.18,18.75-50.09,29.92-74.41,11.15-24.32,23.63-48.11,38.3-70.6,14.7-22.39,31.6-43.77,52.65-60.87,10.52-8.48,22.11-15.86,34.81-20.86,12.65-5.06,26.37-7.63,40.03-7.11,13.66,.39,27.13,3.79,39.55,9.27,12.44,5.5,23.88,12.98,34.37,21.45,20.99,17.06,38.37,37.92,53.79,59.82,30.65,44.11,53.75,92.76,73.76,142.26,19.87,49.64,36.27,100.56,50.56,152,14.24,51.47,26.29,103.52,36.73,155.87,41.29,209.59,58.06,423.38,58.67,636.76Zm-15.79,0c.2-106.3-3.84-212.63-12.68-318.56-8.71-105.93-21.9-211.55-41.56-316-9.82-52.22-21.25-104.14-34.85-155.49-13.65-51.32-29.41-102.12-48.59-151.61-19.32-49.34-41.73-97.82-71.46-141.62-14.95-21.75-31.8-42.4-52.03-59.2-10.11-8.35-21.09-15.69-32.97-21.09-11.87-5.34-24.65-8.84-37.65-9.18-12.99-.41-25.97,2.2-37.98,7.15-12.06,4.9-23.13,12.1-33.22,20.42-20.19,16.78-36.55,37.88-50.77,60.07-14.19,22.29-26.28,45.93-37.05,70.12-10.79,24.2-20.24,49.01-28.86,74.1-17.15,50.23-30.88,101.61-42.61,153.41-11.7,51.82-21.34,104.11-29.53,156.63-16.31,105.05-26.9,210.96-33.6,317.06-6.77,106.12-9.11,212.48-8.92,318.79-.28,106.29,3.27,212.62,11.17,318.63,7.96,105.99,20.16,211.71,38.41,316.4,9.15,52.33,19.83,104.39,32.63,155.92,12.82,51.51,27.7,102.53,46.01,152.28,18.41,49.61,39.94,98.42,69.04,142.39,14.64,21.8,31.31,42.47,51.5,58.86,10.09,8.13,21.07,15.17,32.94,19.99,11.84,4.83,24.53,7.52,37.26,7.09,12.72-.33,25.25-3.69,36.89-9.02,11.65-5.37,22.4-12.76,32.27-21.19,19.76-16.96,36.06-37.89,50.45-59.88,28.59-44.31,49.81-93.23,68.01-142.93,18.07-49.84,32.78-100.9,45.47-152.45,12.66-51.56,23.21-103.65,32.27-156,18.13-104.7,30.18-210.44,38.18-316.43,8.12-106,11.86-212.33,11.82-318.65Z"/>
            <path class="cls-6" d="M2654.19,1778.21c-.74,137.38-18.4,274.83-55.17,407.31-37.42,132.18-93.83,259.34-170.41,373.51-38.3,57.02-81.68,110.69-130.16,159.39-48.46,48.68-102.05,92.37-160.22,128.98-58.22,36.47-121.11,65.67-186.94,85.48-65.79,19.86-134.47,30.21-203.22,30.28-68.74,0-137.45-10.3-203.27-30.1-65.87-19.75-128.8-48.9-187.09-85.34-58.23-36.58-111.9-80.22-160.44-128.89-48.56-48.67-92.03-102.34-130.41-159.36-76.74-114.18-133.26-241.4-170.86-373.64-18.5-66.24-32.26-133.8-41.37-201.95-9.06-68.17-13.61-136.91-13.93-205.67,.36-68.77,4.95-137.5,14.05-205.65,9.15-68.14,22.96-135.68,41.51-201.89,37.69-132.19,94.3-259.32,171.09-373.38,38.4-56.97,81.87-110.57,130.43-159.18,48.54-48.59,102.17-92.2,160.39-128.66,58.27-36.34,121.19-65.27,186.94-85.02,65.71-19.83,134.3-30.17,202.95-30.24,68.65,.12,137.23,10.52,202.9,30.4,65.72,19.8,128.59,48.79,186.79,85.17,58.16,36.5,111.71,80.15,160.17,128.75,48.47,48.63,91.86,102.24,130.17,159.21,76.63,114.05,133.13,241.12,170.64,373.25,36.86,132.43,54.61,269.85,55.44,407.24Zm-18.1,0c-.2-135.82-17.12-271.79-52.95-402.9-36.04-130.91-90.3-257.29-164.99-370.95-37.33-56.77-79.73-110.28-127.21-158.92-47.5-48.56-99.98-92.5-157.36-129.02-57.46-36.32-119.5-65.55-184.56-85.32-65.03-19.79-132.92-30.19-200.93-30.41-68.02,.28-135.89,10.74-200.88,30.58-65.02,19.82-127.02,49.11-184.41,85.47-57.32,36.56-109.72,80.54-157.14,129.12-47.41,48.66-89.72,102.18-126.96,158.95-74.54,113.64-128.69,239.97-164.55,370.81-17.86,65.5-30.8,132.28-39.56,199.57-8.79,67.29-13.12,135.15-13.27,203.03,.19,67.88,4.57,135.73,13.4,203.01,8.81,67.27,21.79,134.04,39.7,199.51,35.95,130.79,90.18,257.03,164.78,370.56,37.26,56.72,79.58,110.18,126.98,158.78,47.42,48.51,99.78,92.45,157.09,128.89,57.38,36.26,119.35,65.33,184.26,85.15,64.88,19.86,132.64,30.37,200.56,30.71,67.93-.28,135.71-10.72,200.62-30.53,64.95-19.76,126.97-48.79,184.41-85.01,57.37-36.41,109.81-80.3,157.31-128.8,47.48-48.58,89.88-102.03,127.23-158.74,74.75-113.54,129.1-239.83,165.23-370.69,35.92-131.06,52.93-267.01,53.22-402.83Z"/>
            <path class="cls-6" d="M690.71,1311.7c-.66,0-1.19-.54-1.18-1.2,0-.65,.53-1.18,1.18-1.18l272.12-2.2,272.12-1.25,544.24-1,544.24,1.11,272.12,1.36,272.12,2.37c.44,0,.8,.36,.79,.81,0,.44-.36,.79-.79,.79l-272.12,2.37-272.12,1.36-544.24,1.11-544.24-1.01-272.12-1.25-272.12-2.2Z"/>
            <path class="cls-6" d="M1005.22,854.72c.01-.64,.53-1.16,1.17-1.17,64.4-1.02,128.8-1.46,193.2-2.2l193.2-1.25c64.4-.53,128.8-.47,193.2-.64l193.2-.37,386.39,1.11,193.2,1.36c64.4,.81,128.8,1.28,193.2,2.37,.44,0,.79,.37,.79,.81,0,.43-.36,.78-.79,.79-64.4,1.09-128.8,1.57-193.2,2.37l-193.2,1.36-386.39,1.11-193.2-.37c-64.4-.16-128.8-.11-193.2-.64l-193.2-1.25c-64.4-.74-128.8-1.18-193.2-2.2-.66-.01-1.18-.55-1.17-1.21Z"/>
            <path class="cls-6" d="M596.14,1767.48c-.66,0-1.19-.54-1.18-1.2,0-.65,.53-1.18,1.18-1.18l295.76-2.19,295.76-1.25,591.52-1.01,591.52,1.11,295.76,1.36,295.76,2.37c.44,0,.8,.36,.79,.81,0,.44-.36,.79-.79,.79l-295.76,2.37-295.76,1.36-591.52,1.11-591.52-1.01-295.76-1.25-295.76-2.19Z"/>
            <path class="cls-6" d="M690.71,2220.87l272.12-2.2,272.12-1.25,544.24-1.01,544.24,1.11,272.12,1.36,272.12,2.37c.44,0,.8,.37,.79,.81,0,.44-.36,.79-.79,.79l-272.12,2.37-272.12,1.36-544.24,1.11-544.24-1.01-272.12-1.25-272.12-2.2c-.66,0-1.19-.54-1.18-1.2,0-.65,.53-1.18,1.18-1.18Z"/>
            <path class="cls-6" d="M2595.08,2677.84c0,2.3-1.87,4.17-4.17,4.17H1045.33c-2.31,0-4.17-1.87-4.17-4.17s1.87-4.17,4.17-4.17h1545.57c2.31,0,4.17,1.87,4.17,4.17Z"/>
          </g>
        </g>
        <g>
          <path class="cls-3" d="M2923.76,1032.68l-1315.32,22.12c-72.57,1.22-131.44,59.09-133.92,131.63l-65.03,1908.61c-1.93,56.76,43.51,103.84,100.31,103.92l1507.99,2.05c53.37,.07,96.41-43.64,95.51-97l-32.27-1919.26c-1.44-85.42-71.85-153.51-157.27-152.07Z"/>
          <path class="cls-75" d="M2796.97,3172.99h.02s168.65-5.02,168.65-5.02c56.77-1.69,102.18-49.26,101.22-106.05l-4.28-254.68c-.04-2.37-2-4.26-4.37-4.22-2.41,.17-4.27,2-4.22,4.37l4.28,254.68c.88,52.11-40.79,95.76-92.89,97.31l-168.65,5.02c-2.37,.07-4.24,2.05-4.17,4.42,.07,2.37,2.04,4.23,4.41,4.17Z"/>
          <path class="cls-75" d="M3057.06,2732.72c2.35-.06,4.23-2.01,4.19-4.37l-.69-41.24c-.04-2.37-1.99-4.27-4.37-4.22-.01,0-.03,0-.03,0-2.37,.06-4.24,2.01-4.2,4.37l.69,41.24c.04,2.37,1.99,4.27,4.37,4.22,0,0,.03,0,.04,0Z"/>
          <g>
            <path class="cls-21" d="M2919.46,1017.29c-179.21,27.38-795.61,113.1-1306.95,82.48-23.32-1.4-43.23,16.59-44.08,39.93l-69.6,1917.19c-.95,26.29,19.48,48.41,45.76,49.52,214.99,9.1,1100.36,43.36,1415.3,5.01,19.17-2.33,33.47-18.75,33.26-38.05l-21.99-2012.13c-.3-27.33-24.69-48.08-51.71-43.95Z"/>
            <path class="cls-75" d="M2901.05,1067.3c-172.46,26.35-765.65,108.84-1257.73,79.38-22.44-1.34-41.61,15.96-42.42,38.43l-66.97,1844.99c-.92,25.3,18.74,46.59,44.04,47.66,206.9,8.76,1058.92,41.73,1362.01,4.82,18.45-2.25,32.21-18.04,32.01-36.62l-21.17-1936.36c-.29-26.3-23.76-46.27-49.76-42.3Z"/>
            <g class="cls-15">
              <path class="cls-5" d="M1660.09,1308.4c-7.06,.12-12.56-5.56-12.21-12.61l.04-.89c.35-7.06,6.41-12.97,13.47-13.15l1116.35-27.57c7.06-.17,9.32,4.26,5.01,9.86l-12.02,15.63c-4.31,5.6-13.61,10.28-20.67,10.4l-1089.97,18.33Z"/>
            </g>
            <g class="cls-15">
              <path class="cls-5" d="M2778.98,1327.86c7.06-.17,9.32,4.26,5.01,9.86l-12.02,15.63c-4.31,5.6-13.61,10.28-20.67,10.4l-1089.97,18.33c-7.06,.12-12.56-5.56-12.21-12.61l.04-.89c.35-7.06,6.41-12.97,13.47-13.15l1116.35-27.57Z"/>
            </g>
            <path class="cls-5" d="M2559.99,1965.97c-.57-57.54-.41-111.55,7.76-139.99,4.95-17.23,22.02-28.93,41.65-28.62,.2,0,.4,.01,.61,.02,27.43,.77,74.07,5.48,115.21,9.63,18.9,1.9,36.07,3.64,48.55,4.68h0c9.02,.76,17.31,5.01,22.72,11.66,4.85,5.95,7.03,13.29,6.14,20.67l-14.95,124.01c-2.32,19.24-20.15,33.65-41.49,33.52l-148.05-.88c-.13,0-.27,0-.41,0-20.66-.32-37.55-15.8-37.74-34.67Zm212.76-142.25c-12.53-1.06-29.77-2.79-48.75-4.71-38.92-3.92-87.35-8.81-114.34-9.57-13.87-.72-26.88,7.96-30.3,19.86-7.72,26.89-7.86,79.93-7.29,136.54,.13,12.35,11.69,22.49,25.84,22.71,.1,0,.2,0,.29,0l148.05,.88c15.19,.09,27.84-9.75,29.42-22.89l14.95-124.01c.49-4.09-.76-8.21-3.51-11.59-3.35-4.12-8.59-6.76-14.37-7.24h0Z"/>
            <path class="cls-8" d="M2756.66,1835.94c-31.06-2.61-98.55-10.52-130.6-11.42-13.58-.38-25.62,7.64-28.99,19.37-6.54,22.78-6.43,68.39-6.01,110.49,.13,12.61,11.54,22.85,25.68,22.93l118.31,.71c14.55,.09,26.78-9.65,28.34-22.54l11.94-99.09c1.24-10.25-7.16-19.48-18.68-20.44Z"/>
            <g class="cls-15">
              <path class="cls-5" d="M2469.1,1869.74c7.06-.06,11.28,5.46,9.38,12.26l-13.73,48.94c-1.91,6.8-9.25,12.28-16.31,12.17l-743.99-11.58c-7.06-.11-12.63-5.98-12.36-13.04l1.11-29.53c.26-7.06,6.26-12.88,13.32-12.94l762.58-6.28Z"/>
            </g>
            <path class="cls-5" d="M2551.41,1633.57c-.57-57.54-.41-111.55,7.76-139.99,4.95-17.23,22.02-28.93,41.65-28.62,.2,0,.4,.01,.61,.02,27.43,.77,74.07,5.48,115.21,9.63,18.9,1.91,36.07,3.64,48.55,4.69h0c9.02,.76,17.3,5.01,22.72,11.66,4.85,5.95,7.03,13.29,6.14,20.67l-14.95,124c-2.32,19.24-20.15,33.65-41.49,33.52l-148.05-.88c-.14,0-.27,0-.41,0-20.66-.32-37.54-15.8-37.74-34.67Zm212.76-142.25c-12.53-1.06-29.77-2.79-48.75-4.71-38.92-3.92-87.35-8.81-114.34-9.57-13.87-.72-26.88,7.96-30.3,19.86-7.72,26.89-7.86,79.93-7.29,136.54,.13,12.36,11.69,22.49,25.84,22.71,.1,0,.2,0,.29,0l148.05,.88c15.19,.09,27.84-9.75,29.42-22.89l14.95-124.01c.49-4.09-.75-8.21-3.51-11.59-3.35-4.12-8.59-6.76-14.37-7.24h0Z"/>
            <path class="cls-8" d="M2748.07,1503.53c-31.06-2.61-98.55-10.52-130.6-11.42-13.58-.38-25.62,7.64-28.99,19.37-6.54,22.78-6.43,68.39-6.01,110.49,.13,12.61,11.54,22.85,25.68,22.94l118.31,.71c14.55,.09,26.78-9.65,28.34-22.54l11.94-99.09c1.24-10.25-7.16-19.47-18.68-20.44Z"/>
            <g class="cls-15">
              <path class="cls-5" d="M2460.51,1537.33c7.06-.06,11.28,5.46,9.38,12.26l-13.73,48.94c-1.91,6.8-9.25,12.28-16.31,12.17l-743.98-11.58c-7.06-.11-12.63-5.98-12.36-13.04l1.11-29.53c.26-7.06,6.26-12.88,13.32-12.94l762.58-6.28Z"/>
            </g>
            <path class="cls-5" d="M2555.06,2283.24c-.57-57.54-.41-111.55,7.76-139.99,4.95-17.23,22.02-28.94,41.65-28.63,.2,0,.4,.01,.6,.01,27.43,.77,74.07,5.48,115.21,9.63,18.9,1.91,36.07,3.64,48.55,4.68h0c9.02,.76,17.3,5.01,22.72,11.66,4.85,5.95,7.03,13.29,6.14,20.67l-14.95,124c-2.32,19.24-20.15,33.65-41.49,33.52l-148.05-.88c-.14,0-.27,0-.41,0-20.66-.32-37.55-15.8-37.73-34.67Zm212.76-142.25c-12.52-1.06-29.77-2.79-48.75-4.71-38.92-3.92-87.35-8.81-114.34-9.57-13.87-.57-26.88,7.96-30.3,19.87-7.72,26.88-7.86,79.92-7.29,136.54,.13,12.36,11.69,22.49,25.84,22.71,.1,0,.2,0,.29,0l148.05,.88c15.19,.09,27.84-9.75,29.43-22.89l14.95-124c.49-4.09-.76-8.21-3.51-11.59-3.36-4.12-8.59-6.76-14.37-7.24h0Z"/>
            <path class="cls-8" d="M2751.72,2153.21c-31.06-2.61-98.55-10.52-130.6-11.42-13.58-.38-25.62,7.64-28.99,19.37-6.54,22.78-6.43,68.39-6.01,110.49,.13,12.61,11.54,22.85,25.68,22.94l118.31,.7c14.55,.09,26.78-9.64,28.34-22.54l11.94-99.09c1.24-10.25-7.16-19.48-18.68-20.44Z"/>
            <g class="cls-15">
              <path class="cls-5" d="M2464.16,2187.01c7.06-.06,11.28,5.46,9.38,12.26l-13.72,48.94c-1.91,6.8-9.25,12.28-16.31,12.17l-743.99-11.58c-7.06-.11-12.63-5.98-12.36-13.04l1.11-29.53c.26-7.06,6.26-12.88,13.32-12.94l762.58-6.28Z"/>
            </g>
            <path class="cls-5" d="M2564.17,2588.1c-.57-57.54-.41-111.54,7.76-139.99,5-17.41,22.77-29.01,42.25-28.61,27.44,.77,76.14,5.68,115.27,9.63,18.88,1.9,36.04,3.64,48.5,4.68h0c9.02,.77,17.31,5.01,22.72,11.66,4.84,5.95,7.03,13.29,6.14,20.67l-14.95,124c-2.32,19.24-20.16,33.66-41.49,33.52l-148.06-.88c-.13,0-.26,0-.39,0-20.66-.32-37.56-15.81-37.75-34.68Zm212.76-142.25c-12.52-1.06-29.74-2.79-48.7-4.7-38.93-3.93-87.39-8.82-114.39-9.57-13.87-.42-26.88,7.96-30.3,19.86-7.72,26.89-7.86,79.92-7.29,136.54,.13,12.44,12.18,22.26,26.13,22.72l148.06,.88c15.19,.09,27.84-9.75,29.42-22.89l14.95-124c.49-4.09-.75-8.2-3.51-11.59-3.36-4.12-8.6-6.76-14.37-7.25h0Z"/>
            <path class="cls-8" d="M2760.83,2458.07c-31.06-2.61-98.55-10.52-130.6-11.42-13.58-.38-25.62,7.64-28.99,19.37-6.54,22.78-6.43,68.39-6.01,110.49,.13,12.61,11.55,22.85,25.68,22.93l118.31,.7c14.55,.09,26.78-9.64,28.34-22.54l11.94-99.09c1.24-10.25-7.16-19.48-18.68-20.44Z"/>
            <g class="cls-15">
              <path class="cls-5" d="M2473.27,2491.88c7.06-.06,11.28,5.46,9.38,12.26l-13.72,48.93c-1.91,6.8-9.25,12.28-16.31,12.17l-743.99-11.58c-7.06-.11-12.63-5.98-12.36-13.04l1.11-29.53c.26-7.06,6.26-12.88,13.32-12.94l762.58-6.28Z"/>
            </g>
            <g class="cls-15">
              <path class="cls-5" d="M2401.65,2805.06c7.06-.08,11.43,5.46,9.7,12.31l-12.31,48.79c-1.73,6.85-8.92,12.36-15.99,12.25l-662.5-10.31c-7.06-.11-12.64-5.98-12.39-13.04l1.04-29.53c.25-7.06,6.23-12.9,13.29-12.98l679.16-7.5Z"/>
            </g>
            <g class="cls-15">
              <path class="cls-5" d="M2765.33,2825.81c7.06-.31,12.14,5.17,11.29,12.19l-4.49,37.11c-.85,7.01-7.32,12.66-14.39,12.55l-234.96-3.66c-7.06-.11-12.7-5.98-12.53-13.04l.51-21.13c.17-7.06,6.09-13.09,13.14-13.4l241.43-10.62Z"/>
            </g>
          </g>
          <path class="cls-68" d="M2180.62,972.45l149.02-15.75,10.24-137.1c2.06-27.59-15.56-52.91-42.22-60.29-29.23-8.09-70.55-8.05-117.5,25.8-92.09,66.39,.47,187.35,.47,187.35Zm29.17-114.6c-.35-20.55,16.04-37.49,36.59-37.84,20.55-.35,37.49,16.04,37.84,36.59,.34,20.55-16.03,37.49-36.59,37.84-20.55,.35-37.49-16.03-37.84-36.59Z"/>
          <path class="cls-75" d="M2313.15,903.13c-4.07-.3-7.12-3.85-6.82-7.92l1.63-21.84c.3-4.08,3.86-7.13,7.93-6.82,4.07,.3,7.12,3.85,6.82,7.92l-1.63,21.84c-.22,2.95-2.14,5.36-4.72,6.35-.99,.38-2.08,.55-3.21,.47Zm3.19-42.79c-4.07-.3-7.12-3.85-6.82-7.92l1.24-16.58c1.57-21.07-11.97-40.42-32.21-46.02-16.14-4.47-32.71-4.87-49.26-1.18-3.99,.89-7.94-1.63-8.82-5.61-.89-3.99,1.69-7.89,5.61-8.82,18.94-4.21,37.93-3.75,56.42,1.37,27.01,7.48,45.1,33.29,43,61.37l-1.24,16.58c-.22,2.95-2.14,5.36-4.72,6.35-.99,.38-2.08,.55-3.21,.47Z"/>
          <path class="cls-79" d="M2534.81,1041.74l-1.16-68.83c-.4-23.76-20.41-42.46-44.14-41.24l-474.24,24.24c-21.05,1.07-37.82,17.99-38.73,39.04l-2.85,66.2,561.12-19.4Z"/>
          <path class="cls-75" d="M2376.9,960.2c2.35-.06,4.23-2.01,4.18-4.37-.04-2.37-1.99-4.26-4.37-4.22l-20.41,.34c-2.47,.07-4.27,2-4.22,4.37,.04,2.37,1.99,4.26,4.37,4.22l20.41-.34s.03,0,.04,0Z"/>
          <path class="cls-75" d="M2511.36,1023.86c2.81-1.08,4.78-3.83,4.73-7.02l-.47-27.84c-.19-11.43-4.82-22.1-13.04-30.05-8.22-7.95-19.04-12.22-30.48-12.03l-75.02,1.27c-4.06,.08-7.34,3.43-7.26,7.52,.07,4.08,3.43,7.33,7.52,7.27l75.02-1.27c15.45-.26,28.23,12.1,28.49,27.55l.47,27.84c.07,4.08,3.43,7.33,7.52,7.27,.89-.02,1.74-.19,2.53-.5Z"/>
          <path class="cls-52" d="M2683.07,1014.05l-829.78,13.93c-29.84,.5-54.98,22.4-59.58,51.89l-.63,4.07c-5.03,32.3,20.26,61.33,52.94,60.78l851.3-14.31c19.56-.33,34.87-16.94,33.6-36.46l-2.47-38.07c-1.55-23.81-21.52-42.22-45.38-41.82Z"/>
          <path class="cls-25" d="M2753.97,1877.82h0c-8.79-6.95-21.57-5.32-28.33,3.62l-31.79,42.03c-3.18,4.21-9.8,2.99-11.28-2.07l-43.48-149.21c-2.17-7.44-12.93-6.53-13.89,1.16-5.35,43.04-5.34,126.27,53.74,204.18,0,0,39.87-9.42,79.65-72.05,5.75-9.05,3.76-21.01-4.64-27.66Z"/>
          <path class="cls-60" d="M2742.34,1524.06h0c-8.79-6.95-21.57-5.32-28.33,3.62l-31.79,42.03c-3.18,4.21-9.8,2.99-11.28-2.07l-43.48-149.21c-2.17-7.44-12.93-6.53-13.89,1.16-5.35,43.04-5.34,126.27,53.74,204.18,0,0,39.87-9.42,79.65-72.05,5.75-9.05,3.76-21.01-4.64-27.66Z"/>
          <path class="cls-80" d="M2736.97,2183.52h0c-8.79-6.95-21.57-5.32-28.33,3.62l-31.79,42.03c-3.18,4.21-9.8,2.99-11.28-2.07l-43.48-149.21c-2.17-7.44-12.93-6.53-13.89,1.16-5.35,43.04-5.34,126.27,53.74,204.18,0,0,39.87-9.42,79.65-72.05,5.75-9.05,3.76-21.01-4.64-27.66Z"/>
          <path class="cls-64" d="M2750.12,2474.4h0c-8.79-6.95-21.57-5.32-28.33,3.62l-31.79,42.03c-3.18,4.21-9.8,2.99-11.28-2.07l-43.48-149.21c-2.17-7.44-12.93-6.53-13.89,1.16-5.35,43.04-5.34,126.27,53.74,204.18,0,0,39.87-9.42,79.65-72.05,5.75-9.05,3.76-21.01-4.64-27.66Z"/>
        </g>
        <g>
          <g>
            <path class="cls-37" d="M2204.34,3220.8c63.03,1.2,114.78-49.57,114.78-112.62v-501.17c0-65.85-52.92-119.42-118.76-120.14-197.61-2.15-605.17-2.26-938.64,25.84-45.51,3.83-80.9,41.13-82.55,86.77l-31.17,484.53c-2.32,64.09,48.35,117.63,112.47,118.85l943.87,17.94Z"/>
            <path class="cls-5" d="M2204.67,2661.23c.84,42.64-.43,110.31-1.46,154.02-.54,22.74-20.51,40.08-43.1,37.43l-162.63-19.06c-21.66-2.54-36.93-22.51-33.69-44.08l19.96-133.17c2.83-18.91,19.07-32.89,38.19-32.89h144.12c21,0,38.2,16.75,38.61,37.75Z"/>
            <path class="cls-7" d="M1779.67,2913.6l-135.66,14.63c-18.98,2.05-35.18-13.61-33.78-32.65l29.66-403.55c56.87-1.8,112.96-3.12,167.09-4.04v395.19c0,15.62-11.77,28.73-27.3,30.41Z"/>
            <path class="cls-5" d="M1724.07,2843.66c-.42,7.26-6.43,12.86-13.61,12.86-.27,0-.53,0-.8-.03-7.52-.44-13.27-6.89-12.83-14.41l20.46-352.2c9.17-.23,18.27-.43,27.37-.63l-20.58,354.42Z"/>
            <g>
              <path class="cls-32" d="M2129.46,2788.36c2.38,0,4.39-1.85,4.54-4.26l7.04-110.93c.16-2.51-1.74-4.66-4.26-4.82-2.64-.2-4.66,1.75-4.82,4.26l-7.04,110.93c-.16,2.5,1.74,4.66,4.26,4.82,.1,0,.2,0,.28,0Z"/>
              <path class="cls-85" d="M2114.98,2788.36c2.44,0,4.47-1.94,4.55-4.4l3.69-113.06c.08-2.51-1.89-4.62-4.4-4.7-2.9-.14-4.61,1.89-4.7,4.4l-3.69,113.06c-.08,2.51,1.89,4.62,4.4,4.7h.15Z"/>
              <path class="cls-86" d="M2095.34,2788.35c-2.51-.12-4.45-2.25-4.33-4.75,1.8-37.98,5.24-110.42,5.29-112.89,.02-2.49,2.05-4.5,4.55-4.5s4.55,2.03,4.55,4.55c0,1.87-4.42,94.69-5.31,113.27-.12,2.44-2.12,4.34-4.54,4.34-.07,0-.14,0-.21,0Zm.88-117.6h0Z"/>
              <path class="cls-22" d="M2065.23,2792.91c4.88,0,8.91-3.86,9.08-8.78,3.85-109.54,3.17-112.01,2.73-113.64-1.32-4.86-6.36-7.71-11.17-6.39-4.45,1.22-7.23,5.54-6.63,9.99,.29,6.58-1.74,70.32-3.11,109.41-.18,5.02,3.75,9.24,8.77,9.41,.11,0,.22,0,.33,0Z"/>
              <path class="cls-11" d="M2045.52,2788.36c2.51,0,4.55-2.03,4.55-4.55v-110.93c0-2.51-2.03-4.55-4.55-4.55s-4.55,2.03-4.55,4.55v110.93c0,2.51,2.03,4.55,4.55,4.55Z"/>
              <path class="cls-41" d="M2029.6,2788.36c2.47,0,4.5-1.97,4.55-4.44,.87-38.55,2.91-101.51,4.73-109.08,.8-1.43,.79-3.24-.17-4.72-1.38-2.11-4.19-2.68-6.3-1.31-2.48,1.62-4.83,3.16-7.36,114.89-.05,2.51,1.94,4.59,4.44,4.66h.11Z"/>
              <path class="cls-9" d="M2153.93,2798.46c4.81,0,8.82-3.77,9.08-8.63l6.07-116.49c.26-5.02-3.6-9.29-8.62-9.56-4.76-.34-9.29,3.6-9.56,8.62l-6.07,116.49c-.26,5.02,3.6,9.29,8.62,9.56,.16,0,.32,0,.48,0Z"/>
            </g>
          </g>
          <g>
            <path class="cls-14" d="M2231.84,2413.64v-351.96c0-46.24-37.16-83.87-83.4-84.37-138.78-1.51-425-1.59-659.19,18.15-31.96,2.69-56.82,28.89-57.97,60.94l-21.89,340.28c-1.63,45.01,33.96,82.61,78.99,83.47l662.86,12.6c44.27,.84,80.61-34.81,80.61-79.09Z"/>
            <path class="cls-5" d="M2151.46,2099.76c.59,29.95-.3,77.47-1.03,108.17-.38,15.97-14.4,28.14-30.27,26.28l-114.21-13.39c-15.21-1.78-25.93-15.81-23.66-30.96l14.02-93.52c1.99-13.28,13.4-23.1,26.82-23.1h101.22c14.75,0,26.82,11.76,27.11,26.51Z"/>
            <path class="cls-7" d="M1853,2277l-95.27,10.28c-13.33,1.44-24.71-9.56-23.72-22.93l20.83-283.4c39.94-1.27,79.33-2.19,117.34-2.84v277.54c0,10.97-8.27,20.18-19.17,21.36Z"/>
            <path class="cls-5" d="M1813.95,2227.88c-.29,5.1-4.52,9.03-9.56,9.03-.19,0-.38,0-.56-.02-5.28-.31-9.32-4.84-9.01-10.12l14.37-247.34c6.44-.16,12.83-.3,19.22-.44l-14.46,248.9Z"/>
            <g>
              <path class="cls-77" d="M2098.64,2189.04c1.67,0,3.08-1.3,3.19-3l4.94-77.91c.11-1.76-1.22-3.28-2.99-3.39-1.85-.14-3.28,1.23-3.39,2.99l-4.94,77.91c-.11,1.76,1.22,3.28,2.99,3.39,.07,0,.14,0,.2,0Z"/>
              <path class="cls-24" d="M2088.47,2189.04c1.72,0,3.14-1.36,3.19-3.09l2.59-79.4c.06-1.77-1.33-3.24-3.09-3.3-2.03-.1-3.24,1.33-3.3,3.09l-2.59,79.4c-.06,1.77,1.33,3.24,3.09,3.3h.11Z"/>
              <path class="cls-49" d="M2074.69,2189.03c-1.77-.08-3.13-1.58-3.04-3.34,1.27-26.67,3.68-77.54,3.72-79.28,.01-1.75,1.44-3.16,3.19-3.16s3.19,1.43,3.19,3.19c0,1.32-3.11,66.5-3.73,79.55-.08,1.72-1.49,3.04-3.19,3.04-.05,0-.1,0-.15,0Zm.62-82.59h0Z"/>
              <path class="cls-65" d="M2053.54,2192.23c3.43,0,6.26-2.71,6.38-6.16,2.7-76.93,2.23-78.66,1.92-79.81-.92-3.41-4.47-5.42-7.84-4.49-3.13,.85-5.08,3.89-4.65,7.01,.21,4.62-1.22,49.38-2.18,76.83-.12,3.52,2.63,6.49,6.16,6.61,.07,0,.16,0,.23,0Z"/>
              <path class="cls-76" d="M2039.7,2189.04c1.77,0,3.19-1.43,3.19-3.19v-77.91c0-1.77-1.43-3.19-3.19-3.19s-3.19,1.43-3.19,3.19v77.91c0,1.77,1.43,3.19,3.19,3.19Z"/>
              <path class="cls-62" d="M2028.52,2189.04c1.73,0,3.16-1.38,3.19-3.12,.61-27.07,2.04-71.29,3.32-76.6,.56-1,.56-2.28-.12-3.31-.97-1.48-2.94-1.88-4.42-.92-1.74,1.14-3.39,2.22-5.17,80.68-.04,1.77,1.36,3.23,3.12,3.27h.07Z"/>
              <path class="cls-51" d="M2115.83,2196.13c3.38,0,6.2-2.65,6.38-6.06l4.26-81.81c.18-3.53-2.53-6.53-6.05-6.71-3.34-.24-6.53,2.53-6.71,6.05l-4.26,81.81c-.18,3.53,2.53,6.53,6.05,6.71,.11,0,.22,0,.34,0Z"/>
            </g>
          </g>
          <g>
            <path class="cls-87" d="M1735.58,3140.33v-351.96c0-46.24-32.12-83.87-72.08-84.37-119.93-1.51-367.29-1.59-569.69,18.15-27.62,2.69-49.1,28.89-50.1,60.94l-18.92,340.28c-1.41,45.01,29.35,82.61,68.26,83.47l572.86,12.6c38.26,.84,69.66-34.81,69.66-79.09Z"/>
            <path class="cls-5" d="M1666.12,2826.45c.51,29.95-.26,77.47-.89,108.17-.33,15.97-12.45,28.14-26.16,26.28l-98.7-13.39c-13.15-1.78-22.41-15.81-20.45-30.96l12.12-93.52c1.72-13.28,11.58-23.1,23.18-23.1h87.47c12.75,0,23.18,11.76,23.43,26.51Z"/>
            <path class="cls-7" d="M1408.17,3003.68l-82.34,10.28c-11.52,1.44-21.35-9.56-20.5-22.93l18-283.4c34.51-1.27,68.56-2.19,101.41-2.84v277.54c0,10.97-7.14,20.18-16.57,21.36Z"/>
            <path class="cls-5" d="M1374.43,2954.56c-.25,5.1-3.9,9.03-8.26,9.03-.16,0-.32,0-.49-.02-4.57-.31-8.05-4.84-7.79-10.12l12.42-247.34c5.57-.16,11.09-.3,16.61-.44l-12.49,248.9Z"/>
            <g>
              <path class="cls-70" d="M1620.47,2915.73c1.45,0,2.66-1.3,2.76-2.99l4.27-77.91c.1-1.76-1.06-3.28-2.58-3.39-1.6-.14-2.83,1.23-2.93,2.99l-4.27,77.91c-.1,1.76,1.06,3.28,2.58,3.39,.06,0,.12,0,.17,0Z"/>
              <path class="cls-19" d="M1611.68,2915.73c1.48,0,2.71-1.36,2.76-3.09l2.24-79.4c.05-1.77-1.15-3.24-2.67-3.3-1.76-.1-2.8,1.33-2.85,3.09l-2.24,79.4c-.05,1.77,1.15,3.24,2.67,3.3h.09Z"/>
              <path class="cls-73" d="M1599.76,2915.72c-1.53-.08-2.7-1.58-2.63-3.34,1.09-26.67,3.18-77.54,3.21-79.28,.01-1.75,1.25-3.16,2.76-3.16s2.76,1.43,2.76,3.19c0,1.32-2.69,66.5-3.22,79.55-.07,1.72-1.29,3.04-2.76,3.04-.04,0-.09,0-.13,0Zm.53-82.59h0Z"/>
              <path class="cls-74" d="M1581.49,2918.92c2.96,0,5.41-2.71,5.51-6.16,2.33-76.93,1.92-78.66,1.65-79.81-.8-3.41-3.86-5.42-6.78-4.49-2.7,.85-4.39,3.89-4.02,7.01,.18,4.62-1.06,49.38-1.89,76.83-.11,3.52,2.28,6.49,5.32,6.61,.06,0,.13,0,.2,0Z"/>
              <path class="cls-42" d="M1569.53,2915.73c1.53,0,2.76-1.43,2.76-3.19v-77.91c0-1.77-1.23-3.19-2.76-3.19s-2.76,1.43-2.76,3.19v77.91c0,1.77,1.23,3.19,2.76,3.19Z"/>
              <path class="cls-31" d="M1559.86,2915.73c1.5,0,2.73-1.38,2.76-3.12,.53-27.07,1.76-71.29,2.87-76.6,.49-1,.48-2.28-.1-3.31-.84-1.48-2.54-1.88-3.82-.92-1.5,1.14-2.93,2.22-4.46,80.68-.03,1.77,1.18,3.23,2.7,3.27h.06Z"/>
              <path class="cls-71" d="M1635.32,2922.82c2.92,0,5.35-2.65,5.51-6.06l3.68-81.81c.16-3.53-2.18-6.53-5.23-6.71-2.89-.24-5.64,2.53-5.8,6.05l-3.68,81.81c-.16,3.53,2.18,6.53,5.23,6.71,.1,0,.19,0,.29,0Z"/>
            </g>
          </g>
        </g>
        <g>
          <g>
            <path class="cls-57" d="M1767.86,1636.13l-49.53,26.66c-59.41,36.17-112.57,55.28-160.4,62.46-149.37,22.41-246.73-71.84-319.27-129.01-95.78-75.48-170.31-38.76-170.31-38.76l102.14,194.94c152.54,143.82,308.94,111.88,407.54,65.28,62.77-29.67,102.12-65.28,102.12-65.28,112.21-66.91,87.73-116.29,87.73-116.29Z"/>
            <path class="cls-29" d="M1913.79,1705.94c-3.2-10.63-11.06-19.23-21.36-23.37l-100.53-40.43s-1.52-12.89,21.24-21.65c22.76-8.76,17.44-34.25,17.44-34.25,0,0-31.09,14.18-76.61,36.68-26.03,12.86-40.64,35.58-48.38,52.68l25.88,34.03c61.96,18.61,124.65,22.17,187.88,14.79l-5.56-18.47Z"/>
          </g>
          <path class="cls-23" d="M1046.38,3126.74s-7.65,43.32-11.4,86.2c-1.47,16.76,11.45,31.31,28.26,32.01,57.11,2.38,179.26,7,223.1,5.05,6.59-.29,10.9-7.04,8.46-13.17h0c-2.04-5.13-5.98-9.29-11.01-11.6l-201.78-92.74-35.63-5.76Z"/>
          <path class="cls-40" d="M1040.11,3101.29l6.15,51.82s35.35,16.45,59.48-2.07l-14.64-57.75-50.99,8Z"/>
          <path class="cls-72" d="M1030.24,2092.94c-2.66,14.03,4.76,734.9,75.5,1042.37,1.15,5.02,8.47,14.86,5.95,19.18-6.14,10.5-51.34,7.55-76.83,8.44-7.89,.28-12.13-8.99-14.36-16.85-20.22-71.34-117.11-428.76-129.75-770.19-14.12-381.52,0-12.99,0-12.99l-6.28-241.71,145.77-28.26Z"/>
          <path class="cls-36" d="M814.27,3149.34s-12.18,21.87-23.97,79.98c-2.13,10.49,5.2,20.54,15.86,21.59,18.86,1.85,47.89,4.24,71.14,4.08,10.72-.07,19.09-9.41,17.79-20.05-2.58-21.21-10.6-56.01-35.39-83.14l-45.43-2.46Z"/>
          <path class="cls-17" d="M803.57,3082.69l14.37,78.36s14.2,10.57,42.3,2.91l-6.86-84.31-49.81,3.04Z"/>
          <path class="cls-47" d="M769.04,2121.05c-57.85,364.43,8.27,928.69,32.01,1033.65,1.45,6.43,6.42,11.35,12.66,12.43,10.6,1.83,28.05,3.33,45.25-1.88,5.93-1.8,10.09-7.38,10.33-13.81,3.19-84.86-2.55-605.83,51.36-811.72,2.73-10.43,8.84-19.53,17.28-25.8l88.71-72.3,1.65-155.89-259.26,35.32Z"/>
          <path class="cls-67" d="M1100.52,1536.39c-152.47-2.52-320.71,40.04-320.71,40.04-37.46,218.6-22.42,460.87-14.62,540.65,1.6,16.36-7.15,33.67,9.07,36.29,79.78,12.89,205.18-.23,244.14-11.55,14.24-4.14,11.82-19.3,14.85-33.82,26.16-125.48,100.97-402.22,100.97-402.22,36.27,46.65,87.43,111.93,163.08,129.3-38.55-44.69,35.39-138.4,27.5-172.01-68.39-76.84-177.25-125.91-224.27-126.68Z"/>
          <path class="cls-10" d="M946.07,1412.6l-48.51,140.3c-.8,2.32,.15,4.9,2.3,6.09,13.22,7.31,60.87,28.45,118.29-7.96,5.98-3.79,10.05-9.98,10.96-17l15.71-121.43h-98.75Z"/>
          <g>
            <path class="cls-81" d="M1051.63,1282.68s53.27,100.28,46.45,140.79c-6.83,40.51-72.85,37.6-130.51,4.7l-40.29-108.28,124.35-37.21Z"/>
            <path class="cls-55" d="M970.12,1375c2.34-1.04,3.21-3.91,1.8-6.05-4.27-6.52-12.27-19.82-14.82-31.47,0,0-9.58-6.13,24.38-14.26,18.49-4.43,51.26-8.09,65.67-21.38,16.12-14.87-13.6-42.98-26.1-50.52-16.49-9.96-36.57-15.85-55.17-10.83-8.98,2.42-17.1,7.22-25.09,11.96-13.62,8.08-27.71,16.6-36.37,29.86-5.61,8.58-8.54,18.59-11.23,28.48-3.86,14.21-7.4,28.76-6.73,43.47,1.79,39.19,47.72,74.3,84.65,78.59,3.02,.35,5.36-2.63,4.37-5.51l-15.1-43.89c-.7-2.04,.27-4.27,2.24-5.15l7.49-3.32Z"/>
            <path class="cls-84" d="M976.19,1381.23s-37.93-26.02-40.7-4.11c-2.77,21.92,34.16,31.74,52.45,23.57l-11.75-19.47Z"/>
          </g>
          <path class="cls-83" d="M1071.04,1258.08c-77.83-147.01-279.55-13.46-185.67,110.38,69.8-46.41,148.67-115.4,185.67-110.38Z"/>
          <path class="cls-30" d="M949.48,1320.36l139.76-4.32c3.55-.11,6.79-2.07,8.51-5.18,12.52-22.61,30.84-37.01,53.75-44.92,2.9-1,2.3-5.27-.76-5.48l-85.68-5.83c-.1,0-.19,0-.29,0-42.7,3.28-80.5,28.97-116.56,62.63-1.2,1.12-.37,3.15,1.28,3.1Z"/>
          <path class="cls-39" d="M797.07,1798.96c85.34-95.81,76.69-169.56-19.63-222.65,0,0-159.66,108.48-185.91,246.02,30.17,2.22,85.06,10.07,138.79,37.2,11.81-64.94,66.75-60.56,66.75-60.56Z"/>
          <path class="cls-33" d="M982.53,1897.55s-179.25,101.31-239.74,14.8c-12.56-17.96-15.56-35.81-12.47-52.83-53.73-27.13-108.62-34.98-138.79-37.2-7.92,41.46-3.73,85.56,20.63,130.13,105.94,193.8,394.08-10.71,394.08-10.71l-23.72-44.2Z"/>
          <g>
            <path class="cls-4" d="M960.99,2025.71l97.83-341.64c1.11-3.88,4.42-6.71,8.43-7.17,17.72-2.07,69.09-7.87,128.39-12.89,71.43-6.04,154.38-10.94,203.95-6.77,7.05,.59,11.3,8.05,8.17,14.39-28.19,57.03-144.13,289-202.2,364.99-1.92,2.52-4.9,3.99-8.07,3.96l-226.98-2.11c-6.6-.06-11.34-6.4-9.52-12.75Z"/>
            <path class="cls-18" d="M1205.78,1634.38l70.93-11.82c3.78-.63,6.87,2.98,5.67,6.62l-7.02,21.28c-.61,1.85-2.23,3.19-4.16,3.45l-68.25,9.12c-3.53,.47-6.44-2.74-5.63-6.21l4.35-18.58c.47-2,2.09-3.52,4.12-3.86Z"/>
            <path class="cls-26" d="M1152.67,1694.43l5.84-30.44c.59-3.05,3.11-5.36,6.2-5.67l143.26-14.54c4.82-.49,8.68,3.93,7.55,8.64l-9.11,37.93c-.73,3.03-3.37,5.23-6.49,5.38l-139.99,7.05c-4.56,.23-8.12-3.87-7.26-8.35Z"/>
            <path class="cls-54" d="M984.63,1943.17s-13.63-56.04-8.13-75.92c5.5-19.88,16.15-45.44,51.65-39.76,35.5,5.68,77.38,20.63,77.38,20.63,0,0-2.12,25.9-29.1,17.54l16.73,12.95s-2.39,20.73-25.18,9.66l15.56,17.17s-9.79,17.03-26.56,6.11c-16.77-10.92-24.8,38.37-72.36,31.62Z"/>
          </g>
          <g>
            <path class="cls-56" d="M927.82,1729.85c-11.19,.9-105.83,3.93-105.83,3.93l3.82,95.28,49.03,27.65,52.98-27.65v-99.21Z"/>
            <polygon class="cls-16" points="935.34 1729.85 822.2 1733.78 817.58 1770.34 876.46 1785.63 939.04 1757.74 935.34 1729.85"/>
          </g>
        </g>
        <g>
          <path class="cls-82" d="M1273.89,712.95l-84.26-54.25c-1.73-1.12-3.83-1.53-5.86-1.15l-111.18,20.81c-3,.56-5.42,2.76-6.27,5.69s.02,6.08,2.25,8.16l65.36,60.81,139.95-40.07Z"/>
          <path class="cls-12" d="M534.39,798.47s1035.68-167.25,1075.74-153.66c40.07,13.58,111.35,57.56,132.58,58.01,21.23,.45,95.26,14.75,75.04,67.42-20.22,52.67-879.21,200.27-978.27,164.21-99.06-36.06-350.34-105.06-350.34-105.06,0,0-22.59-36.58,45.25-30.91Z"/>
          <path class="cls-38" d="M834.11,753.87l-147.1-85.19c-9.22-5.34-16.76-13.16-21.76-22.58l-58.17-109.58c-4.61-8.68-14.35-13.35-24.01-11.49-30.9,5.97-95.03,19.21-95.46,26.45-.57,9.55,26.42,249.91,26.42,249.91l320.08-47.52Z"/>
          <path class="cls-28" d="M543.43,832.99l-13.25,50.35c-2.24,8.5-.45,17.21,4.84,24.22,5.29,7.01,13.51,10.88,22.29,11.06l52.47,1.1c8.29,.17,16.24-2.91,21.81-9.04l95.58-104.99-183.75,27.29Z"/>
          <path class="cls-44" d="M1081.25,1011.55s31.02,39.68,82.77,40.76c51.74,1.09,115.73-11.9,128.06-29.96,12.33-18.06,40.64-152.78-64.85-135.52-105.49,17.26-229.37,75.98-145.97,124.72Z"/>
          <path class="cls-46" d="M1025.27,870.63l246.1-38.27-211.21,260.52c-2.96,3.65-7.31,5.9-12.01,6.2l-147.15,9.36c-6.37,.4-12.42-2.83-15.63-8.35-3.21-5.52-3.01-12.38,.5-17.71l139.39-211.75Z"/>
          <path class="cls-34" d="M1278.5,1025.8c.63,.15,1.24,.18,1.84,.12,3.29-.37,6.64-3.71,9.98-9.92,10.71-19.97,18.1-63.04,1.02-96.25h0c-5.06-9.83-14.65-16.27-25.66-17.26-9.04-.79-20.65,1.67-24.63,17.96-6.24,25.52,17.21,85.07,30.85,100.58,2.4,2.73,4.58,4.31,6.6,4.78Zm-9.52-118.26c7.82,1.81,14.66,7.04,18.38,14.26h0c16.16,31.42,8.97,73.52-.99,92.09-2.88,5.38-5.32,7.45-6.53,7.59-.16,.02-1.55,.06-4.59-3.4-14.18-16.13-35.37-74.01-29.86-96.56,2.62-10.74,9.13-15.5,19.89-14.56,1.25,.11,2.49,.31,3.7,.59Z"/>
          <polygon class="cls-53" points="492.4 608.48 517.88 609.01 538.34 772.14 511.43 777.83 492.4 608.48"/>
          <g>
            <g>
              <path class="cls-58" d="M907.02,812.86c.18-8.38,7.11-15.03,15.49-14.85l.96,.02c8.38,.18,15.03,7.11,14.85,15.49l-.21,9.91c-.18,8.38-7.11,15.03-15.49,14.85l-.96-.02c-8.38-.18-15.03-7.11-14.85-15.49l.21-9.91Z"/>
              <path class="cls-61" d="M965.26,809.61c.18-8.38,7.11-15.03,15.49-14.85l.96,.02c8.38,.18,15.03,7.11,14.86,15.49l-.21,9.91c-.18,8.38-7.11,15.03-15.49,14.85l-.97-.02c-8.38-.18-15.03-7.11-14.85-15.49l.21-9.91Z"/>
              <path class="cls-35" d="M1023.7,797.41c.18-8.38,7.11-15.03,15.49-14.85l.97,.02c8.38,.18,15.03,7.11,14.85,15.49l-.21,9.91c-.18,8.38-7.11,15.03-15.49,14.85l-.96-.02c-8.38-.18-15.03-7.11-14.85-15.49l.21-9.91Z"/>
              <path class="cls-45" d="M1077.56,789.59c.18-8.38,7.11-15.03,15.49-14.85l.96,.02c8.38,.18,15.03,7.11,14.85,15.49l-.21,9.91c-.18,8.38-7.11,15.03-15.49,14.85l-.96-.02c-8.38-.18-15.03-7.11-14.85-15.49l.21-9.91Z"/>
              <path class="cls-13" d="M1140.37,781.96c.18-8.38,7.11-15.03,15.49-14.85l.97,.02c8.38,.18,15.03,7.11,14.85,15.49l-.21,9.91c-.18,8.38-7.11,15.03-15.49,14.85l-.96-.02c-8.38-.18-15.03-7.11-14.85-15.49l.21-9.91Z"/>
              <path class="cls-59" d="M1198.71,774.24c.18-8.38,7.11-15.03,15.49-14.85l.96,.02c8.38,.18,15.03,7.11,14.85,15.49l-.21,9.91c-.18,8.38-7.11,15.03-15.49,14.85l-.96-.02c-8.38-.18-15.03-7.11-14.85-15.49l.21-9.91Z"/>
              <path class="cls-78" d="M1257.15,762.04c.18-8.38,7.11-15.03,15.49-14.85l.96,.02c8.38,.18,15.03,7.11,14.85,15.49l-.21,9.91c-.18,8.38-7.11,15.03-15.49,14.85l-.96-.02c-8.38-.18-15.03-7.11-14.85-15.49l.21-9.91Z"/>
              <path class="cls-50" d="M1310.92,758.7c.18-8.38,7.11-15.03,15.49-14.85l.96,.02c8.38,.18,15.03,7.11,14.85,15.49l-.21,9.91c-.18,8.38-7.11,15.03-15.49,14.86l-.97-.02c-8.38-.18-15.03-7.11-14.85-15.49l.21-9.91Z"/>
              <path class="cls-63" d="M1369.26,750.97c.18-8.38,7.11-15.03,15.49-14.85l.96,.02c8.38,.18,15.03,7.11,14.85,15.49l-.21,9.91c-.18,8.38-7.11,15.03-15.49,14.85l-.96-.02c-8.38-.18-15.03-7.11-14.85-15.49l.21-9.91Z"/>
              <path class="cls-66" d="M1438.29,728.4h9.91c8.38,0,15.18,6.8,15.18,15.18v.97c0,8.38-6.8,15.18-15.18,15.18h-9.92c-8.37,0-15.17-6.8-15.17-15.17v-.97c0-8.38,6.8-15.18,15.18-15.18Z" transform="translate(669.14 2171.42) rotate(-88.8)"/>
              <path class="cls-1" d="M1481.46,735.43c.18-8.38,7.11-15.03,15.49-14.85l.96,.02c8.38,.18,15.03,7.11,14.85,15.49l-.21,9.91c-.18,8.38-7.11,15.03-15.49,14.85l-.96-.02c-8.38-.18-15.03-7.11-14.85-15.49l.21-9.91Z"/>
            </g>
            <path class="cls-48" d="M1681.53,678.23l-102.62,26.19c-7.71,1.97-12.93,9.17-12.39,17.1,.64,9.43,1.84,20.11,3.96,19.25,3.75-1.51,164.55-38.78,164.55-38.78l-53.5-23.77Z"/>
          </g>
        </g>
      </g>
    </g>
  </g>
</svg>