<?xml version="1.0" encoding="UTF-8"?>
<svg id="Illustration" xmlns="http://www.w3.org/2000/svg" xmlns:xlink="http://www.w3.org/1999/xlink" viewBox="0 0 3710 3710">
  <defs>
    <style>
      .cls-1 {
        fill: url(#linear-gradient-75);
      }

      .cls-2 {
        fill: url(#linear-gradient-2);
      }

      .cls-3 {
        fill: url(#linear-gradient-51);
      }

      .cls-4, .cls-5 {
        opacity: .69;
      }

      .cls-6, .cls-7, .cls-8, .cls-9, .cls-10, .cls-5 {
        fill: #fff;
      }

      .cls-11 {
        fill: url(#linear-gradient-17);
      }

      .cls-12 {
        fill: url(#linear-gradient-87);
      }

      .cls-13 {
        fill: url(#linear-gradient-93);
      }

      .cls-14 {
        fill: url(#linear-gradient-92);
      }

      .cls-7 {
        opacity: .47;
      }

      .cls-15 {
        fill: url(#linear-gradient-80);
      }

      .cls-16 {
        fill: url(#linear-gradient-109);
      }

      .cls-17 {
        fill: url(#linear-gradient-43);
      }

      .cls-18 {
        fill: url(#linear-gradient-15);
      }

      .cls-19 {
        fill: url(#linear-gradient-58);
      }

      .cls-20 {
        fill: url(#linear-gradient-69);
      }

      .cls-21 {
        fill: url(#linear-gradient-81);
      }

      .cls-22 {
        fill: url(#linear-gradient-18);
      }

      .cls-23 {
        fill: url(#linear-gradient-56);
      }

      .cls-24 {
        fill: url(#linear-gradient-40);
      }

      .cls-25 {
        fill: url(#linear-gradient-52);
      }

      .cls-26 {
        fill: url(#linear-gradient-28);
      }

      .cls-27 {
        fill: url(#linear-gradient-14);
      }

      .cls-28 {
        fill: url(#linear-gradient-36);
      }

      .cls-29 {
        fill: url(#linear-gradient-78);
      }

      .cls-30 {
        fill: url(#linear-gradient-20);
      }

      .cls-31 {
        fill: url(#linear-gradient-6);
      }

      .cls-32 {
        fill: url(#linear-gradient-53);
      }

      .cls-33 {
        fill: url(#linear-gradient-91);
      }

      .cls-34 {
        fill: url(#linear-gradient-60);
      }

      .cls-35 {
        fill: url(#linear-gradient-108);
      }

      .cls-36 {
        fill: url(#linear-gradient-84);
      }

      .cls-37 {
        fill: url(#linear-gradient-104);
      }

      .cls-38 {
        fill: url(#linear-gradient-35);
      }

      .cls-39 {
        fill: url(#linear-gradient-48);
      }

      .cls-40 {
        fill: url(#linear-gradient-32);
      }

      .cls-41 {
        fill: url(#linear-gradient-97);
      }

      .cls-42 {
        fill: url(#linear-gradient-11);
      }

      .cls-43 {
        fill: url(#linear-gradient-50);
      }

      .cls-8 {
        opacity: .8;
      }

      .cls-44 {
        fill: url(#linear-gradient-106);
      }

      .cls-45 {
        fill: url(#linear-gradient-63);
      }

      .cls-46 {
        fill: url(#linear-gradient-67);
      }

      .cls-47 {
        fill: url(#linear-gradient-95);
      }

      .cls-48 {
        fill: url(#linear-gradient-86);
      }

      .cls-49 {
        fill: url(#linear-gradient-39);
      }

      .cls-50 {
        fill: url(#linear-gradient-10);
      }

      .cls-51 {
        fill: #91b3fa;
      }

      .cls-52 {
        fill: url(#linear-gradient-59);
      }

      .cls-53 {
        fill: url(#linear-gradient-49);
      }

      .cls-54 {
        fill: url(#linear-gradient-37);
      }

      .cls-55 {
        fill: url(#linear-gradient-82);
      }

      .cls-56 {
        fill: url(#linear-gradient-16);
      }

      .cls-57 {
        fill: url(#linear-gradient-31);
      }

      .cls-58 {
        fill: url(#linear-gradient-85);
      }

      .cls-59 {
        fill: url(#linear-gradient-61);
      }

      .cls-60 {
        fill: url(#linear-gradient-68);
      }

      .cls-61 {
        fill: url(#linear-gradient-103);
      }

      .cls-62 {
        fill: url(#linear-gradient-62);
      }

      .cls-63 {
        fill: url(#linear-gradient-107);
      }

      .cls-64 {
        fill: url(#linear-gradient-41);
      }

      .cls-65 {
        fill: url(#linear-gradient-76);
      }

      .cls-9 {
        opacity: .72;
      }

      .cls-66 {
        fill: url(#linear-gradient-98);
      }

      .cls-10 {
        opacity: .37;
      }

      .cls-67 {
        fill: url(#linear-gradient-21);
      }

      .cls-68 {
        fill: url(#linear-gradient-72);
      }

      .cls-69 {
        fill: url(#linear-gradient-25);
      }

      .cls-70 {
        fill: url(#linear-gradient-89);
      }

      .cls-71 {
        fill: url(#linear-gradient-5);
      }

      .cls-72 {
        fill: url(#linear-gradient-64);
      }

      .cls-73 {
        fill: url(#linear-gradient-102);
      }

      .cls-74 {
        fill: url(#linear-gradient-83);
      }

      .cls-75 {
        fill: url(#linear-gradient-54);
      }

      .cls-76 {
        fill: url(#linear-gradient-45);
      }

      .cls-77 {
        fill: url(#linear-gradient-55);
      }

      .cls-78 {
        clip-path: url(#clippath);
      }

      .cls-79 {
        fill: url(#linear-gradient-34);
      }

      .cls-80 {
        fill: url(#linear-gradient-65);
      }

      .cls-81 {
        fill: url(#linear-gradient-70);
      }

      .cls-82 {
        fill: none;
      }

      .cls-83 {
        fill: url(#linear-gradient-79);
      }

      .cls-84 {
        fill: url(#linear-gradient-88);
      }

      .cls-85 {
        fill: url(#linear-gradient-7);
      }

      .cls-86 {
        fill: url(#linear-gradient-66);
      }

      .cls-87 {
        fill: url(#linear-gradient-96);
      }

      .cls-88 {
        fill: url(#linear-gradient-24);
      }

      .cls-89 {
        fill: url(#linear-gradient-73);
      }

      .cls-90 {
        fill: url(#linear-gradient-100);
      }

      .cls-91 {
        fill: url(#linear-gradient-105);
      }

      .cls-92 {
        fill: url(#linear-gradient-9);
      }

      .cls-93 {
        fill: url(#linear-gradient-22);
      }

      .cls-94 {
        fill: url(#linear-gradient-74);
      }

      .cls-95 {
        fill: url(#linear-gradient-42);
      }

      .cls-96 {
        fill: url(#linear-gradient-99);
      }

      .cls-97 {
        fill: url(#linear-gradient-3);
      }

      .cls-98 {
        fill: url(#linear-gradient);
      }

      .cls-99 {
        fill: url(#linear-gradient-27);
      }

      .cls-100 {
        fill: url(#linear-gradient-33);
      }

      .cls-101 {
        fill: url(#linear-gradient-38);
      }

      .cls-102 {
        fill: url(#linear-gradient-94);
      }

      .cls-103 {
        fill: url(#linear-gradient-29);
      }

      .cls-104 {
        fill: url(#linear-gradient-30);
      }

      .cls-105 {
        fill: #bdd0fb;
      }

      .cls-106 {
        fill: url(#linear-gradient-23);
      }

      .cls-107 {
        fill: url(#linear-gradient-19);
      }

      .cls-108 {
        fill: url(#linear-gradient-71);
      }

      .cls-109 {
        fill: url(#linear-gradient-4);
      }

      .cls-110 {
        fill: url(#linear-gradient-77);
      }

      .cls-111 {
        fill: url(#linear-gradient-8);
      }

      .cls-112 {
        fill: url(#linear-gradient-90);
      }

      .cls-113 {
        fill: url(#linear-gradient-44);
      }

      .cls-114 {
        fill: url(#linear-gradient-57);
      }

      .cls-115 {
        fill: url(#linear-gradient-47);
      }

      .cls-116 {
        fill: url(#linear-gradient-46);
      }

      .cls-117 {
        fill: url(#linear-gradient-12);
      }

      .cls-118 {
        fill: url(#linear-gradient-13);
      }

      .cls-119 {
        fill: url(#linear-gradient-26);
      }

      .cls-120 {
        fill: url(#linear-gradient-101);
      }
    </style>
    <linearGradient id="linear-gradient" x1="3445.05" y1="3288.66" x2="1365.82" y2="1469.33" gradientUnits="userSpaceOnUse">
      <stop offset="0" stop-color="#dae3fe"/>
      <stop offset="1" stop-color="#e9effd"/>
    </linearGradient>
    <linearGradient id="linear-gradient-2" x1="-8031.21" y1="-1975.3" x2="-8097.34" y2="-2651.24" gradientTransform="translate(-5164.92 2350.29) rotate(-166.23) scale(1 -1)" gradientUnits="userSpaceOnUse">
      <stop offset="0" stop-color="#4f52ff"/>
      <stop offset="1" stop-color="#4042e2"/>
    </linearGradient>
    <linearGradient id="linear-gradient-3" x1="629.33" y1="298.63" x2="964.14" y2="2172.88" gradientTransform="matrix(1, 0, 0, 1, 0, 0)" xlink:href="#linear-gradient-2"/>
    <clipPath id="clippath">
      <polygon class="cls-82" points="2161.44 1102.36 1379.75 1021.48 598.06 1112.94 598.06 3058.49 1379.75 3010.33 2161.44 3063.72 2942.16 2982.23 2942.16 1057.13 2161.44 1102.36"/>
    </clipPath>
    <linearGradient id="linear-gradient-4" x1="2389.48" y1="1360" x2="3390.47" y2="-407.25" gradientTransform="matrix(1, 0, 0, 1, 0, 0)" xlink:href="#linear-gradient-2"/>
    <linearGradient id="linear-gradient-5" x1="1528.66" y1="872.42" x2="2529.64" y2="-894.83" gradientTransform="matrix(1, 0, 0, 1, 0, 0)" xlink:href="#linear-gradient-2"/>
    <linearGradient id="linear-gradient-6" x1="3236.94" y1="1840.01" x2="4237.92" y2="72.76" gradientTransform="matrix(1, 0, 0, 1, 0, 0)" xlink:href="#linear-gradient-2"/>
    <linearGradient id="linear-gradient-7" x1="2174.45" y1="1238.2" x2="3175.43" y2="-529.04" gradientTransform="matrix(1, 0, 0, 1, 0, 0)" xlink:href="#linear-gradient-2"/>
    <linearGradient id="linear-gradient-8" x1="1433.47" y1="818.51" x2="2434.45" y2="-948.75" gradientTransform="matrix(1, 0, 0, 1, 0, 0)" xlink:href="#linear-gradient-2"/>
    <linearGradient id="linear-gradient-9" x1="2887.2" y1="1641.91" x2="3888.18" y2="-125.34" gradientTransform="matrix(1, 0, 0, 1, 0, 0)" xlink:href="#linear-gradient-2"/>
    <linearGradient id="linear-gradient-10" x1="1761.17" y1="1004.12" x2="2762.15" y2="-763.13" gradientTransform="matrix(1, 0, 0, 1, 0, 0)" xlink:href="#linear-gradient-2"/>
    <linearGradient id="linear-gradient-11" x1="2482.74" y1="1412.82" x2="3483.72" y2="-354.43" gradientTransform="matrix(1, 0, 0, 1, 0, 0)" xlink:href="#linear-gradient-2"/>
    <linearGradient id="linear-gradient-12" x1="1918.78" y1="1093.39" x2="2919.76" y2="-673.86" gradientTransform="matrix(1, 0, 0, 1, 0, 0)" xlink:href="#linear-gradient-2"/>
    <linearGradient id="linear-gradient-13" x1="2511.07" y1="1428.87" x2="3512.05" y2="-338.38" gradientTransform="matrix(1, 0, 0, 1, 0, 0)" xlink:href="#linear-gradient-2"/>
    <linearGradient id="linear-gradient-14" x1="1963.75" y1="1118.87" x2="2964.73" y2="-648.38" gradientTransform="matrix(1, 0, 0, 1, 0, 0)" xlink:href="#linear-gradient-2"/>
    <linearGradient id="linear-gradient-15" x1="1804.78" y1="1028.82" x2="2805.77" y2="-738.43" gradientTransform="matrix(1, 0, 0, 1, 0, 0)" xlink:href="#linear-gradient-2"/>
    <linearGradient id="linear-gradient-16" x1="2275.36" y1="1295.36" x2="3276.34" y2="-471.89" gradientTransform="matrix(1, 0, 0, 1, 0, 0)" xlink:href="#linear-gradient-2"/>
    <linearGradient id="linear-gradient-17" x1="2437.34" y1="1387.11" x2="3438.33" y2="-380.14" gradientTransform="matrix(1, 0, 0, 1, 0, 0)" xlink:href="#linear-gradient-2"/>
    <linearGradient id="linear-gradient-18" x1="2026.19" y1="1154.23" x2="3027.17" y2="-613.02" gradientTransform="matrix(1, 0, 0, 1, 0, 0)" xlink:href="#linear-gradient-2"/>
    <linearGradient id="linear-gradient-19" x1="-2123.16" y1="1709.96" x2="-2029.09" y2="1945.91" gradientTransform="translate(-1165.43) rotate(-180) scale(1 -1)" gradientUnits="userSpaceOnUse">
      <stop offset="0" stop-color="#09005d"/>
      <stop offset="1" stop-color="#1a0f91"/>
    </linearGradient>
    <linearGradient id="linear-gradient-20" x1="-2468.77" y1="1517.37" x2="-2295" y2="1912.74" gradientTransform="translate(-915.01 -113.52) rotate(-167.84) scale(1 -1)" gradientUnits="userSpaceOnUse">
      <stop offset="0" stop-color="#febbba"/>
      <stop offset="1" stop-color="#ff928e"/>
    </linearGradient>
    <linearGradient id="linear-gradient-21" x1="-1274.1" y1="-393.31" x2="-1332.77" y2="62.31" xlink:href="#linear-gradient-19"/>
    <linearGradient id="linear-gradient-22" x1="-2116.34" y1="3535.07" x2="-2001.56" y2="2193.57" gradientTransform="translate(-1165.43) rotate(-180) scale(1 -1)" xlink:href="#linear-gradient-20"/>
    <linearGradient id="linear-gradient-23" x1="-1614.56" y1="-437.16" x2="-1673.24" y2="18.46" xlink:href="#linear-gradient-19"/>
    <linearGradient id="linear-gradient-24" x1="-1885.45" y1="3555.03" x2="-1770.64" y2="2213.18" gradientTransform="translate(-1165.43) rotate(-180) scale(1 -1)" xlink:href="#linear-gradient-20"/>
    <linearGradient id="linear-gradient-25" x1="630.74" y1="2526.84" x2="934.49" y2="2229.99" gradientUnits="userSpaceOnUse">
      <stop offset="0" stop-color="#ff928e"/>
      <stop offset="1" stop-color="#fe7062"/>
    </linearGradient>
    <linearGradient id="linear-gradient-26" x1="663.02" y1="2875.66" x2="1505.63" y2="1838.6" gradientTransform="matrix(1, 0, 0, 1, 0, 0)" xlink:href="#linear-gradient-19"/>
    <linearGradient id="linear-gradient-27" x1="842.34" y1="2368.9" x2="959.7" y2="1947.8" gradientTransform="matrix(1, 0, 0, 1, 0, 0)" xlink:href="#linear-gradient-20"/>
    <linearGradient id="linear-gradient-28" x1="-2313.71" y1="1705.04" x2="-2125.58" y2="1370.23" gradientTransform="translate(-936.34 -99.24) rotate(-168.8) scale(1 -1)" xlink:href="#linear-gradient-20"/>
    <linearGradient id="linear-gradient-29" x1="-2273.25" y1="1413.48" x2="-2179.18" y2="1649.44" gradientTransform="translate(-936.34 -99.24) rotate(-168.8) scale(1 -1)" xlink:href="#linear-gradient-19"/>
    <linearGradient id="linear-gradient-30" x1="-2273.66" y1="1727.55" x2="-2085.53" y2="1392.74" gradientTransform="translate(-936.34 -99.24) rotate(-168.8) scale(1 -1)" xlink:href="#linear-gradient-20"/>
    <linearGradient id="linear-gradient-31" x1="-2503.11" y1="1532.46" x2="-2329.34" y2="1927.83" xlink:href="#linear-gradient-20"/>
    <linearGradient id="linear-gradient-32" x1="1316.43" y1="1417.17" x2="1292.27" y2="2038.47" xlink:href="#linear-gradient-25"/>
    <linearGradient id="linear-gradient-33" x1="869.15" y1="2127.31" x2="555.04" y2="2558.77" gradientTransform="matrix(1, 0, 0, 1, 0, 0)" xlink:href="#linear-gradient-20"/>
    <linearGradient id="linear-gradient-34" x1="2531.38" y1="2065.12" x2="2522.18" y2="1128.58" gradientTransform="translate(1735.64 -1372.8) rotate(45)" xlink:href="#linear-gradient-25"/>
    <linearGradient id="linear-gradient-35" x1="2531.25" y1="2065.13" x2="2522.04" y2="1128.58" xlink:href="#linear-gradient-25"/>
    <linearGradient id="linear-gradient-36" x1="2107.71" y1="2413.8" x2="2650.77" y2="1134.38" gradientUnits="userSpaceOnUse">
      <stop offset="0" stop-color="#e1473d"/>
      <stop offset="1" stop-color="#e9605a"/>
    </linearGradient>
    <linearGradient id="linear-gradient-37" x1="1197.04" y1="1307.17" x2="1210.85" y2="701.98" gradientTransform="translate(960.53 -602.28) rotate(45)" xlink:href="#linear-gradient-25"/>
    <linearGradient id="linear-gradient-38" x1="1196.72" y1="1307.16" x2="1210.53" y2="701.97" xlink:href="#linear-gradient-25"/>
    <linearGradient id="linear-gradient-39" x1="955.36" y1="1351.8" x2="1279.81" y2="753.51" xlink:href="#linear-gradient-36"/>
    <linearGradient id="linear-gradient-40" x1="2529.67" y1="3158.99" x2="2546.93" y2="2831.08" xlink:href="#linear-gradient-36"/>
    <linearGradient id="linear-gradient-41" x1="3363.53" y1="2962.48" x2="3196.13" y2="3028.07" xlink:href="#linear-gradient-36"/>
    <linearGradient id="linear-gradient-42" x1="2583.13" y1="3279.95" x2="2552.07" y2="2461.91" xlink:href="#linear-gradient-25"/>
    <linearGradient id="linear-gradient-43" x1="3044.79" y1="592.74" x2="2754.85" y2="1904.37" gradientTransform="matrix(1, 0, 0, 1, 0, 0)" xlink:href="#linear-gradient-19"/>
    <linearGradient id="linear-gradient-44" x1="233.6" y1="2987.71" x2="273.91" y2="3861.24" gradientTransform="translate(2111.82) rotate(-180) scale(1 -1)" xlink:href="#linear-gradient-25"/>
    <linearGradient id="linear-gradient-45" x1="220.17" y1="3089.33" x2="594.16" y2="3098.75" gradientTransform="translate(2111.82) rotate(-180) scale(1 -1)" xlink:href="#linear-gradient-36"/>
    <linearGradient id="linear-gradient-46" x1="9116.95" y1="-4009.72" x2="8896.05" y2="-3840.59" gradientTransform="translate(2111.82) rotate(-180) scale(1 -1)" xlink:href="#linear-gradient-19"/>
    <linearGradient id="linear-gradient-47" x1="9161.28" y1="-3951.83" x2="8940.37" y2="-3782.7" gradientTransform="translate(2111.82) rotate(-180) scale(1 -1)" xlink:href="#linear-gradient-19"/>
    <linearGradient id="linear-gradient-48" x1="417.65" y1="2768.75" x2="229.63" y2="2865.79" gradientTransform="translate(2111.82) rotate(-180) scale(1 -1)" xlink:href="#linear-gradient-25"/>
    <linearGradient id="linear-gradient-49" x1="395.18" y1="2479.68" x2="-26.67" y2="2697.41" gradientTransform="translate(2111.82) rotate(-180) scale(1 -1)" xlink:href="#linear-gradient-36"/>
    <linearGradient id="linear-gradient-50" x1="109.32" y1="3131.96" x2="345.13" y2="3131.96" gradientTransform="translate(2111.82) rotate(-180) scale(1 -1)" xlink:href="#linear-gradient-19"/>
    <linearGradient id="linear-gradient-51" x1="-3079.41" y1="2865.88" x2="-3399" y2="3264.43" gradientTransform="translate(4756.36 -390.05) rotate(-94.37) scale(1 -1)" xlink:href="#linear-gradient-25"/>
    <linearGradient id="linear-gradient-52" x1="270.5" y1="3061.05" x2="150.64" y2="3257.43" gradientTransform="translate(2666.99 90.8) rotate(-169.72) scale(1 -1)" xlink:href="#linear-gradient-19"/>
    <linearGradient id="linear-gradient-53" x1="-617.62" y1="3131.96" x2="-381.81" y2="3131.96" gradientTransform="translate(2111.82) rotate(-180) scale(1 -1)" xlink:href="#linear-gradient-19"/>
    <linearGradient id="linear-gradient-54" x1="-3797.6" y1="2940.33" x2="-4181.12" y2="3271.2" gradientTransform="translate(5401.27 -1132.39) rotate(-94.73) scale(1 -1)" xlink:href="#linear-gradient-25"/>
    <linearGradient id="linear-gradient-55" x1="-456.44" y1="3061.05" x2="-576.3" y2="3257.43" gradientTransform="translate(2678.65 -38.91) rotate(-169.72) scale(1 -1)" xlink:href="#linear-gradient-19"/>
    <linearGradient id="linear-gradient-56" x1="-887.35" y1="3131.96" x2="-651.53" y2="3131.96" gradientTransform="translate(2111.82) rotate(-180) scale(1 -1)" xlink:href="#linear-gradient-19"/>
    <linearGradient id="linear-gradient-57" x1="-4012.91" y1="2943.1" x2="-4475.38" y2="3258.94" gradientTransform="translate(5648.75 -1401.2) rotate(-94.73) scale(1 -1)" xlink:href="#linear-gradient-25"/>
    <linearGradient id="linear-gradient-58" x1="-726.17" y1="3061.05" x2="-846.02" y2="3257.43" gradientTransform="translate(2975.76 -91.75) rotate(-164.52) scale(1 -1)" xlink:href="#linear-gradient-19"/>
    <linearGradient id="linear-gradient-59" x1="1945.17" y1="2866.58" x2="1808.83" y2="2961.5" xlink:href="#linear-gradient-25"/>
    <linearGradient id="linear-gradient-60" x1="2570.84" y1="3004.58" x2="2995.39" y2="2721.54" xlink:href="#linear-gradient-25"/>
    <linearGradient id="linear-gradient-61" x1="5632.92" y1="2770.54" x2="5514.52" y2="2942.59" gradientTransform="translate(-2971.73)" xlink:href="#linear-gradient-19"/>
    <linearGradient id="linear-gradient-62" x1="5637.18" y1="2773.47" x2="5518.78" y2="2945.52" gradientTransform="translate(-2971.73)" xlink:href="#linear-gradient-19"/>
    <linearGradient id="linear-gradient-63" x1="5642.32" y1="2777" x2="5523.92" y2="2949.05" gradientTransform="translate(-2971.73)" xlink:href="#linear-gradient-19"/>
    <linearGradient id="linear-gradient-64" x1="5651.2" y1="2783.12" x2="5532.8" y2="2955.17" gradientTransform="translate(-2971.73)" xlink:href="#linear-gradient-19"/>
    <linearGradient id="linear-gradient-65" x1="5657.06" y1="2787.15" x2="5538.66" y2="2959.2" gradientTransform="translate(-2971.73)" xlink:href="#linear-gradient-19"/>
    <linearGradient id="linear-gradient-66" x1="5660.7" y1="2789.65" x2="5542.3" y2="2961.7" gradientTransform="translate(-2971.73)" xlink:href="#linear-gradient-19"/>
    <linearGradient id="linear-gradient-67" x1="5626.83" y1="2766.34" x2="5508.43" y2="2938.4" gradientTransform="translate(-2971.73)" xlink:href="#linear-gradient-19"/>
    <linearGradient id="linear-gradient-68" x1="2065.96" y1="3042.94" x2="2521.58" y2="2742.64" xlink:href="#linear-gradient-25"/>
    <linearGradient id="linear-gradient-69" x1="5162.95" y1="2787.64" x2="5044.55" y2="2959.69" gradientTransform="translate(-2971.73)" xlink:href="#linear-gradient-19"/>
    <linearGradient id="linear-gradient-70" x1="5167.21" y1="2790.57" x2="5048.81" y2="2962.62" gradientTransform="translate(-2971.73)" xlink:href="#linear-gradient-19"/>
    <linearGradient id="linear-gradient-71" x1="5172.34" y1="2794.1" x2="5053.94" y2="2966.15" gradientTransform="translate(-2971.73)" xlink:href="#linear-gradient-19"/>
    <linearGradient id="linear-gradient-72" x1="5181.23" y1="2800.22" x2="5062.83" y2="2972.27" gradientTransform="translate(-2971.73)" xlink:href="#linear-gradient-19"/>
    <linearGradient id="linear-gradient-73" x1="5187.09" y1="2804.25" x2="5068.69" y2="2976.3" gradientTransform="translate(-2971.73)" xlink:href="#linear-gradient-19"/>
    <linearGradient id="linear-gradient-74" x1="5190.73" y1="2806.75" x2="5072.32" y2="2978.8" gradientTransform="translate(-2971.73)" xlink:href="#linear-gradient-19"/>
    <linearGradient id="linear-gradient-75" x1="5156.86" y1="2783.45" x2="5038.46" y2="2955.5" gradientTransform="translate(-2971.73)" xlink:href="#linear-gradient-19"/>
    <linearGradient id="linear-gradient-76" x1="2705.57" y1="2709.48" x2="2988.6" y2="2502.38" xlink:href="#linear-gradient-25"/>
    <linearGradient id="linear-gradient-77" x1="5724.81" y1="2546.23" x2="5641.66" y2="2667.06" gradientTransform="translate(-2971.73)" xlink:href="#linear-gradient-19"/>
    <linearGradient id="linear-gradient-78" x1="5727.8" y1="2548.29" x2="5644.65" y2="2669.12" gradientTransform="translate(-2971.73)" xlink:href="#linear-gradient-19"/>
    <linearGradient id="linear-gradient-79" x1="5731.41" y1="2550.77" x2="5648.26" y2="2671.6" gradientTransform="translate(-2971.73)" xlink:href="#linear-gradient-19"/>
    <linearGradient id="linear-gradient-80" x1="5737.65" y1="2555.07" x2="5654.5" y2="2675.89" gradientTransform="translate(-2971.73)" xlink:href="#linear-gradient-19"/>
    <linearGradient id="linear-gradient-81" x1="5741.76" y1="2557.9" x2="5658.61" y2="2678.73" gradientTransform="translate(-2971.73)" xlink:href="#linear-gradient-19"/>
    <linearGradient id="linear-gradient-82" x1="5744.32" y1="2559.66" x2="5661.17" y2="2680.48" gradientTransform="translate(-2971.73)" xlink:href="#linear-gradient-19"/>
    <linearGradient id="linear-gradient-83" x1="5720.54" y1="2543.29" x2="5637.39" y2="2664.12" gradientTransform="translate(-2971.73)" xlink:href="#linear-gradient-19"/>
    <linearGradient id="linear-gradient-84" x1="2388.22" y1="2733.22" x2="2654" y2="2508.86" xlink:href="#linear-gradient-25"/>
    <linearGradient id="linear-gradient-85" x1="5426.61" y1="2550.46" x2="5343.32" y2="2671.49" gradientTransform="translate(-2971.73)" xlink:href="#linear-gradient-19"/>
    <linearGradient id="linear-gradient-86" x1="5428.93" y1="2552.58" x2="5345.87" y2="2673.28" gradientTransform="translate(-2971.73)" xlink:href="#linear-gradient-19"/>
    <linearGradient id="linear-gradient-87" x1="5431.84" y1="2555.04" x2="5348.66" y2="2675.9" gradientTransform="translate(-2971.73)" xlink:href="#linear-gradient-19"/>
    <linearGradient id="linear-gradient-88" x1="5436.81" y1="2559.4" x2="5354.06" y2="2679.65" gradientTransform="translate(-2971.73)" xlink:href="#linear-gradient-19"/>
    <linearGradient id="linear-gradient-89" x1="5440.12" y1="2562.21" x2="5357.28" y2="2682.58" gradientTransform="translate(-2971.73)" xlink:href="#linear-gradient-19"/>
    <linearGradient id="linear-gradient-90" x1="5442.19" y1="2563.92" x2="5359.02" y2="2684.78" gradientTransform="translate(-2971.73)" xlink:href="#linear-gradient-19"/>
    <linearGradient id="linear-gradient-91" x1="5423.19" y1="2547.62" x2="5340.25" y2="2668.15" gradientTransform="translate(-2971.73)" xlink:href="#linear-gradient-19"/>
    <linearGradient id="linear-gradient-92" x1="2098.51" y1="2717.48" x2="2371.19" y2="2531.09" xlink:href="#linear-gradient-25"/>
    <linearGradient id="linear-gradient-93" x1="5136.16" y1="2559.3" x2="5052.87" y2="2680.33" gradientTransform="translate(-2971.73)" xlink:href="#linear-gradient-19"/>
    <linearGradient id="linear-gradient-94" x1="5138.48" y1="2561.41" x2="5055.42" y2="2682.12" gradientTransform="translate(-2971.73)" xlink:href="#linear-gradient-19"/>
    <linearGradient id="linear-gradient-95" x1="5141.39" y1="2563.87" x2="5058.21" y2="2684.73" gradientTransform="translate(-2971.73)" xlink:href="#linear-gradient-19"/>
    <linearGradient id="linear-gradient-96" x1="5146.36" y1="2568.24" x2="5063.61" y2="2688.48" gradientTransform="translate(-2971.73)" xlink:href="#linear-gradient-19"/>
    <linearGradient id="linear-gradient-97" x1="5149.66" y1="2571.04" x2="5066.83" y2="2691.42" gradientTransform="translate(-2971.73)" xlink:href="#linear-gradient-19"/>
    <linearGradient id="linear-gradient-98" x1="5151.73" y1="2572.76" x2="5068.56" y2="2693.62" gradientTransform="translate(-2971.73)" xlink:href="#linear-gradient-19"/>
    <linearGradient id="linear-gradient-99" x1="5132.74" y1="2556.46" x2="5049.8" y2="2676.98" gradientTransform="translate(-2971.73)" xlink:href="#linear-gradient-19"/>
    <linearGradient id="linear-gradient-100" x1="1211.55" y1="980.56" x2="1059.68" y2="4156.09" xlink:href="#linear-gradient-36"/>
    <linearGradient id="linear-gradient-101" x1="1149.07" y1="977.57" x2="997.2" y2="4153.09" xlink:href="#linear-gradient-36"/>
    <linearGradient id="linear-gradient-102" x1="1085.81" y1="974.54" x2="933.94" y2="4150.07" xlink:href="#linear-gradient-36"/>
    <linearGradient id="linear-gradient-103" x1="1069.39" y1="973.76" x2="917.52" y2="4149.29" xlink:href="#linear-gradient-36"/>
    <linearGradient id="linear-gradient-104" x1="1071.9" y1="973.88" x2="920.03" y2="4149.41" xlink:href="#linear-gradient-36"/>
    <linearGradient id="linear-gradient-105" x1="1297.67" y1="984.68" x2="1145.8" y2="4160.2" xlink:href="#linear-gradient-36"/>
    <linearGradient id="linear-gradient-106" x1="1514.96" y1="995.07" x2="1363.09" y2="4170.6" xlink:href="#linear-gradient-36"/>
    <linearGradient id="linear-gradient-107" x1="2045.95" y1="1020.46" x2="1894.07" y2="4195.99" xlink:href="#linear-gradient-36"/>
    <linearGradient id="linear-gradient-108" x1="2567.6" y1="1045.41" x2="2415.73" y2="4220.94" xlink:href="#linear-gradient-36"/>
    <linearGradient id="linear-gradient-109" x1="1454.21" y1="1642.42" x2="1545.68" y2="1462.93" gradientTransform="translate(2730.78 -123.66) rotate(76.72)" xlink:href="#linear-gradient-25"/>
  </defs>
  <path class="cls-98" d="M3091.69,2343.8c-268.72,632.73-984.53,987.19-1605.28,891.57-101.01-15.56-377.93-61.9-623.1-280.55-471.97-420.9-572.91-1254.35-192.18-1841.7,277.1-427.49,773.84-669.82,1245.83-657.69,101.67,2.61,491.3,18.7,833.72,301.05,50.29,41.47,161.22,140.02,261.2,296.36,234.76,367.12,254.94,878.59,79.81,1290.95Z"/>
  <g>
    <path class="cls-2" d="M2748.52,2991.89s78.73-714.05,372.57-1134.57c19.75-28.27,62.91-23.64,76.02,8.26,87.67,213.28,286.27,868.52-448.59,1126.31Z"/>
    <path class="cls-51" d="M2812.11,2938.63c-1.49,1.86,1.08,4.21,2.8,2.56,63.64-60.76,302.93-350.23,339.98-872.83,.12-1.68-2.37-2.01-2.63-.34-19.42,122.48-104.64,575.77-340.15,870.61Z"/>
  </g>
  <g>
    <path class="cls-97" d="M1406.33,2439.89s-183.97-1234.51-721.98-1945.15c-36.17-47.77-110.79-36.88-131.44,19.37-138.1,376.1-439.5,1526.87,853.42,1925.78Z"/>
    <path class="cls-51" d="M1292.39,2351.63c2.71,3.14-1.59,7.37-4.69,4.63-114.51-101.27-549.14-588-648.06-1492.87-.32-2.91,3.98-3.64,4.55-.77,41.82,211.35,219.8,992.71,648.21,1489.02Z"/>
  </g>
  <g>
    <g>
      <polygon class="cls-6" points="2186.05 1048.43 1363.34 963.17 540.62 1059.58 540.62 3110.47 1363.34 3059.7 2186.05 3115.98 3007.74 3030.08 3007.74 1000.76 2186.05 1048.43"/>
      <polygon class="cls-51" points="1381 3012.95 599.31 3061.11 599.31 1115.55 1381 1024.09 1381 3012.95"/>
      <polygon class="cls-105" points="2162.69 3066.34 1381 3012.95 1381 1024.09 2162.69 1104.97 2162.69 3066.34"/>
      <polygon class="cls-51" points="2943.4 2984.84 2162.69 3066.34 2162.69 1104.97 2943.4 1059.75 2943.4 2984.84"/>
      <rect class="cls-7" x="1363.3" y="1024.09" width="17.7" height="1989.4"/>
    </g>
    <g class="cls-78">
      <g class="cls-4">
        <polygon class="cls-109" points="2389 1124.61 2591.66 1279.68 2453.53 1409.19 2290.73 1257.73 2389 1124.61"/>
        <polygon class="cls-71" points="1060.21 1429 1077.12 1257.73 1372.15 1343.36 1372.15 1560.65 1060.21 1429"/>
        <polygon class="cls-31" points="2749.54 2494.53 2913.15 2412.82 2935.3 2578.56 2792.29 2624.5 2749.54 2494.53"/>
        <polygon class="cls-85" points="1207.85 2626.42 1372.15 2710.92 1535.92 2683.85 1521.12 2571.86 1372.15 2537.4 1207.85 2626.42"/>
        <polygon class="cls-6" points="1040.34 1433.92 594.55 1590.88 604.07 1627.52 668.45 1604.86 1080.96 1735.3 1087.86 1705.74 715.95 1588.13 1035.1 1475.76 1332.84 1704.38 1291.87 2034.3 966.25 2061.22 679.9 2510.78 706.32 2533.59 983.67 2098.16 1320.63 2070.31 1368.38 1685.8 1040.34 1433.92"/>
        <polygon class="cls-6" points="901.2 2758.7 560.82 2422.79 582.08 2393.58 922.47 2729.5 901.2 2758.7"/>
        <polygon class="cls-6" points="2207.3 2423.95 2004.17 1841.67 1973.7 1856.07 2080.57 2162.42 1561.56 2348.2 1571.23 2384.8 2092.99 2198.03 2176.82 2438.36 2207.3 2423.95"/>
        <polygon class="cls-6" points="2641.22 2310.66 2542.32 2435.89 2346.99 1989.62 2323.55 2003.52 2523.21 2459.69 2523.82 2459.33 2447.65 2555.78 2471.86 2581.69 2665.44 2336.57 2641.22 2310.66"/>
        <path class="cls-6" d="M2522.27,1536.87l-19.09-31.18c-.83,.69-1.35,1.27-1.38,1.31,10.45-11.9,152.17-211.55,244.89-342.86l11.57-16.38,210.89,247.96-23.37,26.94-185.26-217.82c-20.36,28.81-64.65,91.43-109.02,153.85-122.86,172.89-126.25,175.7-129.24,178.18Z"/>
        <polygon class="cls-6" points="2097.34 1739.81 2031.26 1476.48 1950.49 1236.44 1588.97 1261.46 1587.02 1223.24 1972.4 1196.56 2062.62 1464.93 2128.91 1729.08 2097.34 1739.81"/>
        <polygon class="cls-6" points="1058.17 1437.11 1031.93 1434.77 1045.62 1226.28 1374.81 1305.48 1369.48 1335.48 1069.58 1263.32 1058.17 1437.11"/>
        <polygon class="cls-6" points="2449.41 1431.54 2432.99 1407.61 2569.9 1280.31 2380.2 1121.35 2395.57 1096.49 2613.43 1279.04 2449.41 1431.54"/>
        <polygon class="cls-6" points="2980.3 2615.94 2762.08 1715.32 2730.42 1725.71 2895.12 2405.43 2741.06 2482.36 2751.44 2510.52 2899.47 2436.59 2917.21 2569.34 2801.94 2606.37 2808.94 2635.9 2940.71 2593.57 2948.65 2626.33 2980.3 2615.94"/>
        <path class="cls-6" d="M1377.78,2974.23l-483.98-224.15,12.16-35.58,460.05,213.06,130.96-213.21-117.71,32.73-200.51-108.6,13.87-34.71,190.13,102.98,151.34-42.08c14.57-4.05,26.55,11.86,18.64,24.74l-174.94,284.81Z"/>
        <polygon class="cls-6" points="2429.12 2563.15 2099.77 2978.12 1765.15 2615.99 1576.71 2339.1 1556.09 2358.12 1745.15 2635.93 1745.77 2636.84 2081.91 3000.62 2029.69 3066.43 2053.84 3092.41 2453.27 2589.13 2429.12 2563.15"/>
      </g>
      <g>
        <path class="cls-111" d="M1478.63,1723.43l-114.94-147.99c-257.59-105.71-550.97-214.99-778.55-227.55l1.4-34.42c232.46,12.83,530.07,123.93,790.54,230.92l3.54,1.45,119.97,154.47-21.96,23.11Z"/>
        <path class="cls-92" d="M2924.27,2902.43c-250.92-179.32-534.74-376.7-731.93-453.03l-640.98,275.43-10.25-32.33,650.65-279.58,4.89,1.86c200.43,76.1,488.67,276.46,743.1,458.29l-15.49,29.37Z"/>
        <polygon class="cls-50" points="1672.67 1599.87 1475.88 1032.75 1503.33 1019.84 1700.11 1586.96 1672.67 1599.87"/>
        <path class="cls-42" d="M2564.43,1756.85c-50.9-229.88-148.97-388.19-299.8-483.99l14.18-30.25c83.22,52.86,152.23,124.96,205.1,214.29,48.03,81.14,83.74,176.44,109.18,291.35l-28.66,8.6Z"/>
        <polygon class="cls-117" points="1027.81 2701.72 1003.1 2682.44 1293.9 2161.31 1318.61 2180.58 1027.81 2701.72"/>
        <polygon class="cls-118" points="2646.1 1776.42 1791.8 1736.78 1792.98 1702.34 2640.83 1741.69 2951.85 1593.26 2963.08 1625.14 2646.1 1776.42"/>
        <polygon class="cls-27" points="604.63 2900.51 593.98 2868.36 1370.11 2519.85 1522.59 2537.49 1519.66 2571.78 1374.19 2554.95 604.63 2900.51"/>
        <path class="cls-18" d="M1604.83,2200.93c-333.22-4.11-645.52-23.82-804.8-217.3l21.37-23.84c151.32,183.82,457.08,202.66,783.74,206.69l-.31,34.46Z"/>
        <polygon class="cls-56" points="1575.59 3016.35 1505.94 2533.31 1507 2529.37 1707.63 1784.77 1797.56 1607.55 2153.43 1383.65 2390.82 1079.53 2412.72 1102.71 2171.94 1411.17 1818.86 1633.31 1734.86 1798.87 1536.31 2535.75 1604.79 3010.64 1575.59 3016.35"/>
        <polygon class="cls-11" points="2958.58 2979.34 2542.76 2103.41 1774.06 1775.58 1637.23 1737.59 1140.66 1693.89 592.34 2161.64 574.84 2133.85 1131.98 1658.57 1137.44 1659.05 1641.81 1703.44 1782.61 1742.53 1783.42 1742.88 2563.33 2075.48 2566 2081.11 2984.49 2962.67 2958.58 2979.34"/>
      </g>
    </g>
    <ellipse class="cls-5" cx="1721.24" cy="1692.62" rx="99.29" ry="99.21"/>
    <ellipse class="cls-22" cx="1721.24" cy="1692.62" rx="71.15" ry="71.08"/>
  </g>
  <g>
    <path class="cls-107" d="M901.95,1836.88s-31.71,15.42-37.54,33.14c-4.68,14.22-39.74,16.05-43.21,44.01-1.79,14.44-12.47,26-26.85,28.2-35.81,5.49-91,24.08-99.83,86.26-6.74,47.46,17.45,65.45,42.84,71.68,18.65,4.57,31.04,22.71,27.27,41.54-3.62,18.06,1.78,38.93,33.06,55.44,70.11,36.99,140.12-87.64,140.12-87.64l14.35-217.62-50.22-55.03Z"/>
    <path class="cls-30" d="M1283.42,1785.29s-139.98,221.41-306.43,264.17c0,0,32.43,92.38,57.47,102.95,0,0,204.78-170.87,257.41-335.66l-8.45-31.46Z"/>
    <path class="cls-67" d="M613.78,3201.41l-4.54,37.3c-.86,7.08-6.43,12.67-13.51,13.48-11.96,1.37-31.14,2.77-49.91,.78-8.24-.87-13.59-9.21-11.08-17.11,4.58-14.4,12.95-36.01,25.02-48.73h41.37c7.65,0,13.58,6.69,12.65,14.28Z"/>
    <path class="cls-93" d="M937.82,2764.52l6.98,41.08s-23.38,236.87-27.54,331.61c-.65,14.85,3.19,29.53,10.99,42.19l40.66,66.03-103.34-60.98-2.06-12.61,16.92-23.26-22.16-265.35c-1.3-15.59,1.91-31.22,9.27-45.03l21.38-40.16,48.91-33.53Z"/>
    <path class="cls-106" d="M975.71,3255h-32.98c-6.17,0-11.99-2.83-15.76-7.73-10.28-13.36-31.58-39.42-41.77-40.1-13.71-.92-11.96,47.83-11.96,47.83h-7.69l-9.73-60.57c-2.45-15.24,5.13-30.34,18.81-37.48h0s3.13,23.18,20.13,33.43c16.99,10.25,69.16,46.97,69.16,46.97,0,0,6.39-.91,13.4,.36,10.41,1.88,8.95,17.29-1.62,17.29Z"/>
    <path class="cls-88" d="M796.28,2784.03s-136.99,259.86-158.77,319.2c-21.78,59.33-29.41,108.83-29.7,113.51-.46,7.32-9.57,14.35-34.68,14.35-12.96,0-19.31-5.19-22.41-10.22-2.65-4.29-2.79-9.66-.55-14.18,7.92-16.04,33.07-67.29,42.39-90.53,11.12-27.75,35.04-153.53,48.16-197.26,13.12-43.73,27.95-91.17,85.07-134.86,0,0,39.22-38.41,70.49,0Z"/>
    <path class="cls-69" d="M882.82,2358.23c35.34-149.74-54.18-234.43-54.18-234.43,56.49-54.22,159.41-78.89,159.41-78.89,0,0,98.21,71.8,86.56,128-6.83,32.94-69.03,197.29-69.03,197.29,0,0-57.52,27.22-122.75-11.96Z"/>
    <path class="cls-119" d="M804.47,2432.36c14.38-43.33,78.35-74.13,78.35-74.13,65.23,39.18,122.75,11.96,122.75,11.96,0,0,12.9,49.3,4,95.12-8.9,45.82-64.76,340.29-64.76,340.29-88.01,17.83-223.37-17.94-223.37-17.94,56.06-99.53,68.65-311.97,83.03-355.29Z"/>
    <path class="cls-99" d="M923.84,1945.94l-28.73,129.05c-2.75,11.37,7.61,9.51,19.11,7.34,18.82-3.55,43.08-10.86,51.19-25.5,.83-1.49,1.24-3.18,1.47-4.86l12.34-89.49c.98-7.1-2.86-13.99-9.41-16.9l-23.82-10.56c-9.17-4.07-19.79,1.17-22.15,10.92Z"/>
    <g>
      <path class="cls-26" d="M978.87,1828.3s30.59,20.71,43.73,73.43c13.14,52.73-8.22,71.64-30.11,70.48-21.89-1.16-53.64-7.93-81.14-45.76-27.51-37.83,27.44-123.46,67.52-98.16Z"/>
      <path class="cls-103" d="M939.08,1905.19s-11.21-75.55,51.52-64l12.68,13.21s30.7-34.58-3.27-60.72c-33.98-26.14-81.13-19.44-107.22,28.14-26.09,47.59-35.55,81.02-13.69,110.59,21.87,29.57,38.31,4.21,38.31,4.21,0,0-10.03-25.59-1.71-36.57,8.32-10.98,19.06,6.39,19.06,6.39l4.31-1.25Z"/>
      <path class="cls-104" d="M930.51,1911.66s-5.53-38.87-25.39-27.76c-19.85,11.11,7.15,36.31,17.98,44.89l7.4-17.13Z"/>
    </g>
    <g>
      <path class="cls-57" d="M1282.46,1830.87c.42,4.57-16.56,7.72-21.97-11.75,1.49-8.45,4.12-45.47,10.61-51.22,34.52-30.63,96.08-65.09,96.08-65.09,6.88,10.51-2.14,17.43-2.14,17.43l-30.73,20.74c3.21,10.62,7.88,20,8.41,32.12,.4,9.18-2.99,18.16-9.08,25.13-6.12,6.99-14.35,16.01-21.77,22.86-14.05,12.96-29.41,9.77-29.41,9.77Z"/>
      <path class="cls-40" d="M1299,1815.71l-4.39-1.8c.62-1.52,15.36-37.32,22.47-44.75,2.74-2.86,4.07-5.33,3.94-7.33-.07-1.13-.64-2.24-1.71-3.36l-25.02,13.38-11,17.23-3.99-2.55,11.67-18.28,28.99-15.5,1.22,1c2.91,2.37,4.41,4.92,4.58,7.79,.21,3.42-1.5,6.99-5.25,10.9-5.39,5.64-17.36,33.15-21.51,43.28Z"/>
    </g>
    <path class="cls-100" d="M828.63,2123.79s-159.05,326.57-216.66,355.12c0,0-58.48,6.11-94.27,16.94-9,2.72-8.7,15.51,.37,17.98,24.93,6.8,66.22,12.48,104.07-8.07,0,0-20.33,30.47-8.47,42.34,0,0,27.11-32.18,37.27-42.34,8.95-8.95,171.83-186.52,240.31-293.62,5.53-8.65,1.69-34.37-2.15-43.89-8.84-21.92-28.47-56.91-60.47-44.46Z"/>
  </g>
  <g>
    <g>
      <circle class="cls-79" cx="2524.93" cy="1408.71" r="289.21" transform="translate(-256.57 2198) rotate(-45)"/>
      <path class="cls-38" d="M2813.61,1385.19h-577.89s-23.02,164.53,235.09,604.21c11.26,19.18,31.84,32.65,54.08,32.66,22.24,.01,42.86-14.27,54.12-33.45,258.09-439.72,234.6-603.42,234.6-603.42Z"/>
    </g>
    <path class="cls-28" d="M2530.15,2033.45v1.24h-5.26c-25.17,0-48.67-13.66-61.32-35.2-150.88-257.01-206.16-419.42-225.97-510.35-5.65-20.92-8.89-41.38-9.92-62.4-1.75-21.51-.41-30.54-.25-31.5l.76-4.61c11.65-155.35,140.95-276.25,296.74-276.25s288.3,122.62,297.12,279.21c.22,2.05,.64,7.25,.48,15.94v1.07c.01,28.41-4,56.54-11.92,83.63-20.49,90.85-73.44,251.75-221.75,504.43-12.73,21.69-35.01,34.8-58.72,34.8Zm-286.54-629.3c-.07,0,.06,11.56,.82,20.89l.02,.48c.96,19.92,4.04,39.35,9.41,59.2l.1,.46c19.51,89.7,74.22,250.23,224.09,505.52,9.65,16.44,30.21,26.66,49.46,26.67l2.64,8.41v-8.4c9.48,0,37.42-10.3,47.15-26.87,147.36-251.06,204.12-410.61,223.08-500.24v-.52c9.48-25.63,10.41-52.27,10.41-79.16l-.93-1.18v-.09c0-8.37-2.33-12.9-2.46-14.09l-1.07-.49c-8.21-147.81-131.88-263.59-280.88-263.59s-272.11,116.38-280.59,265.49l-.71,7.51h-.54Z"/>
    <g>
      <path class="cls-6" d="M2633.83,1715.32h-210.58c-30.11,0-54.61-24.5-54.61-54.61v-244.67h319.28v245.19c0,29.82-24.26,54.08-54.08,54.08Zm-252.32-286.4v231.79c0,23.01,18.72,41.73,41.74,41.73h210.58c22.72,0,41.21-18.49,41.21-41.21v-232.32h-293.53Z"/>
      <path class="cls-6" d="M2716.9,1421.26h-377.19c-6.58,0-12.58-3.27-16.05-8.74-3.2-5.04-3.76-11.2-1.47-16.08l.5-1.07,.85-.82,199.1-192.5,.63-.38c11.76-7.09,25.13-6.35,32.48,1.81l174.06,192.95c3.88,4.3,4.87,10.19,2.58,15.35-2.56,5.76-8.64,9.48-15.47,9.48Zm-383.24-18.59c-.05,.8,.19,1.89,.86,2.94,.66,1.03,2.2,2.77,5.18,2.77h377.19c2,0,3.3-.92,3.7-1.84,.16-.35,.27-.78-.37-1.49l-174.07-192.96c-2.97-3.3-9.62-3.15-15.68,.26l-196.83,190.31Z"/>
      <path class="cls-6" d="M2612.12,1708.45h-81.71v-195.52h81.71v195.52Zm-72.05-9.66h62.39v-176.2h-62.39v176.2Z"/>
      <path class="cls-6" d="M2495.47,1557.42h-76.56v-76.56h76.56v76.56Zm-66.9-9.66h57.24v-57.24h-57.24v57.24Z"/>
    </g>
  </g>
  <g>
    <g>
      <circle class="cls-54" cx="1207.28" cy="858.33" r="182.86" transform="translate(-253.32 1105.08) rotate(-45)"/>
      <path class="cls-101" d="M1389.8,843.46h-365.38s-14.56,104.03,148.64,382.02c7.12,12.13,20.13,20.64,34.19,20.65,14.06,0,27.1-9.02,34.22-21.15,163.18-278.02,148.33-381.52,148.33-381.52Z"/>
    </g>
    <path class="cls-49" d="M1210.58,1253.33v.78h-3.32c-15.92,0-30.77-8.63-38.77-22.26-95.39-162.5-130.35-265.18-142.87-322.67-3.57-13.23-5.62-26.16-6.27-39.45-1.1-13.6-.26-19.31-.16-19.92l.48-2.92c7.37-98.22,89.12-174.66,187.61-174.66s182.28,77.53,187.86,176.53c.14,1.3,.41,4.58,.3,10.08v.68c0,17.96-2.53,35.75-7.53,52.88-12.95,57.44-46.43,159.17-140.2,318.93-8.05,13.71-22.14,22-37.12,22Zm-181.17-397.88s.04,7.31,.52,13.2v.31c.62,12.59,2.57,24.88,5.96,37.43l.06,.29c12.33,56.71,46.93,158.21,141.68,319.62,6.1,10.39,19.1,16.86,31.27,16.86l1.67,5.32v-5.31c5.99,0,23.66-6.51,29.81-16.99,93.17-158.73,129.06-259.61,141.05-316.28v-.33c5.99-16.21,6.58-33.05,6.58-50.05l-.59-.75v-.06c0-5.29-1.47-8.16-1.56-8.91l-.68-.31c-5.19-93.45-83.38-166.66-177.59-166.66s-172.05,73.58-177.41,167.86l-.45,4.75h-.34Z"/>
    <path class="cls-6" d="M1107.71,747.81c-.5,0-.99-.21-1.34-.62-.64-.74-.55-1.86,.19-2.5,29.66-25.47,67.56-39.5,106.71-39.5,.98,0,1.77,.79,1.77,1.77s-.79,1.77-1.77,1.77c-38.31,0-75.38,13.73-104.4,38.65-.33,.29-.74,.43-1.15,.43Z"/>
    <path class="cls-6" d="M1051.17,870.82c-.98,0-1.77-.79-1.77-1.77,0-30.58,8.48-60.4,24.51-86.26,.52-.83,1.61-1.09,2.44-.57,.83,.52,1.09,1.61,.57,2.44-15.69,25.29-23.98,54.48-23.98,84.39,0,.98-.79,1.77-1.77,1.77Z"/>
    <g>
      <g>
        <g>
          <g>
            <path class="cls-6" d="M1105.3,784.59l-12.45-45.89-36.3-19.68-4.84,8.85,32.49,17.52,38.72,141.85,1.2,4.06h157.97c15.39,0,29.68-7.39,38.03-20.32l7.21-9.23c7.62-11.81,12.91-25.35,12.91-39.41v-37.75h-234.94Zm223.67,37.75c0,12.1-4.16,23.82-10.73,33.98l-6.57,10.47c-6.46,10.01-17.66,16.99-29.59,16.99h-150.22l-8.22-30.44-15.58-57.48h220.9v26.48Z"/>
            <path class="cls-6" d="M1318.43,942.78c0,2.8-2.28,5.63-5.08,5.63h-185.35c-2.81,0-4.93-3.97-4.93-6.77v-87.4c0-.96,.19-.86,.66-1.63l8.15,31.17h2.46v53.35h179.01c2.81,0,5.08,2.83,5.08,5.64Z"/>
          </g>
          <g>
            <rect class="cls-6" x="1215.53" y="789.89" width="6.77" height="95.14"/>
            <g>
              <rect class="cls-6" x="1155.76" y="789.89" width="6.77" height="95.14"/>
              <rect class="cls-6" x="1273.88" y="789.89" width="6.77" height="95.14"/>
            </g>
          </g>
          <g>
            <rect class="cls-6" x="1110.64" y="817.88" width="220.06" height="6.05"/>
            <rect class="cls-6" x="1120.24" y="851" width="204.94" height="6.05"/>
          </g>
        </g>
        <path class="cls-6" d="M1151.73,955.35c-12.07,0-21.85,9.78-21.85,21.85s9.78,21.85,21.85,21.85,21.85-9.78,21.85-21.85-9.78-21.85-21.85-21.85Zm0,35.04c-7.28,0-13.19-5.91-13.19-13.19s5.91-13.19,13.19-13.19,13.19,5.91,13.19,13.19-5.91,13.19-13.19,13.19Z"/>
        <path class="cls-6" d="M1287.54,955.35c-12.07,0-21.85,9.78-21.85,21.85s9.78,21.85,21.85,21.85,21.85-9.78,21.85-21.85-9.78-21.85-21.85-21.85Zm0,35.04c-7.28,0-13.19-5.91-13.19-13.19s5.91-13.19,13.19-13.19,13.19,5.91,13.19,13.19-5.91,13.19-13.19,13.19Z"/>
      </g>
      <path class="cls-6" d="M1079.07,727.86c0,5.67-4.6,10.27-10.27,10.27h-34.16c-5.67,0-10.27-4.6-10.27-10.27h0c0-5.67,4.6-10.27,10.27-10.27h34.16c5.67,0,10.27,4.6,10.27,10.27h0Z"/>
    </g>
  </g>
  <g>
    <g>
      <rect class="cls-24" x="2034.66" y="3032.23" width="998.53" height="91.61"/>
      <rect class="cls-64" x="3025.87" y="3032.23" width="29.31" height="113.59"/>
      <path class="cls-95" d="M2045.66,2508.03c0-21.83,23.06-40.11,48.08-40.11h942.26c25.02,0,44.84,18.28,44.84,40.11v496.58c0,21.83-19.82,40.44-44.84,40.44h-942.26c-25.02,0-48.08-18.61-48.08-40.44v-496.58Z"/>
      <path class="cls-17" d="M2078.64,2528.04c0-19.97,17.21-36.3,40.8-36.3h888.9c23.59,0,46.84,16.33,46.84,36.3v453.92c0,19.97-23.25,39.27-46.84,39.27h-888.9c-23.59,0-40.8-19.3-40.8-39.27v-453.92Z"/>
      <path class="cls-113" d="M1718.38,2869.85l61.9-190.92c1.55-4.79,6.02-7.64,11.06-7.64h248.82v452.55h-336.44l14.66-253.98Z"/>
      <path class="cls-76" d="M1701.86,3054.49c3.33-2.19,7.38-3.37,12.02-3.29l259.29,5,1.15,73.68-259.06,6.36c-9.5,0-17.71-4.58-17.71-11v-62.41c0-3.14,.98-6.15,4.31-8.34Z"/>
      <g>
        <path class="cls-116" d="M1766.7,2856.58l37.41-148.41c1.31-5.16,5.95-9.4,11.27-9.4h146.32c3.14,0,6.15,1.9,8.34,4.16,2.19,2.26,3.37,5.62,3.28,8.76l-3.51,118.82c-.16,5.57-4.26,10.32-9.77,11.21l-180.23,29.16c-3.86,.62-7.78-.72-10.43-3.61-2.64-2.89-3.66-6.89-2.7-10.69Z"/>
        <path class="cls-115" d="M1774.17,2697.62l1.91,.32c3.24,.54,6.1,2.42,7.88,5.18,1.78,2.76,2.3,6.14,1.45,9.31l-40.78,151.66c-1.58,5.86-7.4,9.53-13.37,8.41l-12.88-2.41,55.79-172.46Z"/>
      </g>
      <rect class="cls-39" x="1902.75" y="2880.16" width="67.79" height="27.48" rx="10.99" ry="10.99"/>
      <path class="cls-53" d="M2022.82,2537.66c3.9-.28,8.86,.92,11.72,3.59,2.87,2.66,5.62,6.26,5.62,10.17v119.87h-151.74s8.15-124.42,134.4-133.63Z"/>
      <g>
        <g>
          <circle class="cls-43" cx="1884.59" cy="3131.96" r="117.91"/>
          <circle class="cls-3" cx="1884.59" cy="3131.96" r="95.75" transform="translate(-1381.95 4772.25) rotate(-85.63)"/>
          <path class="cls-9" d="M1804.17,3168.18c-1.25,0-2.45-.73-2.97-1.97-4.59-10.85-6.92-22.38-6.92-34.25,0-48.52,39.47-88,88-88,15.05,0,29.91,3.87,42.96,11.18,1.55,.87,2.1,2.83,1.23,4.38-.87,1.55-2.82,2.11-4.38,1.23-12.09-6.78-25.86-10.36-39.81-10.36-44.97,0-81.56,36.59-81.56,81.56,0,11.01,2.16,21.69,6.41,31.75,.69,1.64-.07,3.53-1.71,4.22-.41,.17-.83,.25-1.25,.25Z"/>
        </g>
        <circle class="cls-25" cx="1884.59" cy="3131.96" r="43.91" transform="translate(-528.57 386.51) rotate(-10.28)"/>
      </g>
      <g>
        <g>
          <circle class="cls-32" cx="2611.54" cy="3131.96" r="117.91"/>
          <circle class="cls-75" cx="2611.54" cy="3131.96" r="95.75" transform="translate(-725.15 5476.27) rotate(-85.27)"/>
          <path class="cls-9" d="M2531.11,3168.18c-1.25,0-2.45-.73-2.97-1.97-4.59-10.85-6.92-22.38-6.92-34.25,0-48.52,39.48-88,88-88,15.05,0,29.91,3.87,42.96,11.18,1.55,.87,2.1,2.83,1.23,4.38-.87,1.55-2.82,2.11-4.38,1.23-12.09-6.78-25.86-10.36-39.81-10.36-44.97,0-81.56,36.59-81.56,81.56,0,11.01,2.16,21.69,6.41,31.75,.69,1.64-.07,3.53-1.71,4.22-.41,.17-.83,.25-1.25,.25Z"/>
        </g>
        <circle class="cls-77" cx="2611.54" cy="3131.96" r="43.91" transform="translate(-516.91 516.22) rotate(-10.28)"/>
      </g>
      <g>
        <g>
          <circle class="cls-23" cx="2881.26" cy="3131.96" r="117.91"/>
          <circle class="cls-114" cx="2881.26" cy="3131.96" r="95.75" transform="translate(-477.67 5745.08) rotate(-85.27)"/>
          <path class="cls-9" d="M2800.83,3168.18c-1.25,0-2.45-.73-2.97-1.97-4.59-10.84-6.91-22.37-6.91-34.25,0-48.52,39.47-88,87.99-88,15.05,0,29.91,3.87,42.96,11.18,1.55,.87,2.1,2.83,1.23,4.38-.87,1.55-2.82,2.11-4.38,1.23-12.09-6.78-25.86-10.36-39.81-10.36-44.97,0-81.56,36.59-81.56,81.56,0,11.02,2.16,21.7,6.41,31.75,.69,1.64-.07,3.53-1.71,4.22-.41,.17-.83,.25-1.25,.25Z"/>
        </g>
        <circle class="cls-19" cx="2881.26" cy="3131.96" r="43.91" transform="translate(-731.48 882.75) rotate(-15.48)"/>
      </g>
      <g>
        <rect class="cls-52" x="1703.04" y="2984.59" width="53.13" height="64.13" rx="11.64" ry="11.64"/>
        <path class="cls-8" d="M1732.36,2984.59v60.46h9.56c6.42,0,14.25-7.22,14.25-13.64v-38.29c0-6.42-7.83-8.53-14.25-8.53h-9.56Z"/>
      </g>
      <rect class="cls-10" x="2018.28" y="2698.77" width="3.45" height="269.33"/>
      <path class="cls-9" d="M1916.27,2660.01c-.35,0-.7-.05-1.05-.18-1.68-.58-2.57-2.41-1.99-4.1,18.92-54.83,48.57-78.41,70.11-88.53,23.56-11.08,42.47-8.97,43.25-8.9,1.76,.21,3.02,1.81,2.81,3.57s-1.78,3.01-3.57,2.82c-2.92-.35-71.94-7.08-106.52,93.14-.46,1.33-1.71,2.17-3.04,2.17Z"/>
    </g>
    <g>
      <path class="cls-34" d="M2609.8,3003.33c-25.64,.49-46.68-20.16-46.68-45.8v-203.84c0-26.78,21.52-48.57,48.3-48.86,80.37-.88,246.14-.92,381.77,10.51,18.51,1.56,32.9,16.73,33.58,35.29l12.68,197.07c.94,26.07-19.67,47.84-45.75,48.34l-383.89,7.3Z"/>
      <path class="cls-6" d="M2609.67,2775.75c-.34,17.34,.17,44.86,.6,62.64,.22,9.25,8.34,16.3,17.53,15.22l66.14-7.75c8.81-1.03,15.02-9.15,13.7-17.93l-8.12-54.16c-1.15-7.69-7.76-13.38-15.53-13.38h-58.62c-8.54,0-15.54,6.81-15.7,15.35Z"/>
      <path class="cls-10" d="M2782.53,2878.39l55.18,5.95c7.72,.83,14.31-5.53,13.74-13.28l-12.06-164.13c-23.13-.73-45.94-1.27-67.96-1.64v160.73c0,6.35,4.79,11.69,11.1,12.37Z"/>
      <path class="cls-6" d="M2805.14,2849.94c.17,2.95,2.62,5.23,5.54,5.23,.11,0,.22,0,.33-.01,3.06-.18,5.4-2.8,5.22-5.86l-8.32-143.25c-3.73-.09-7.43-.18-11.13-.26l8.37,144.15Z"/>
      <g>
        <path class="cls-59" d="M2640.26,2827.45c-.97,0-1.78-.75-1.85-1.73l-2.86-45.12c-.07-1.02,.71-1.9,1.73-1.96,1.07-.08,1.9,.71,1.96,1.73l2.86,45.12c.07,1.02-.71,1.9-1.73,1.96-.04,0-.08,0-.12,0Z"/>
        <path class="cls-62" d="M2646.15,2827.45c-.99,0-1.82-.79-1.85-1.79l-1.5-45.98c-.03-1.02,.77-1.88,1.79-1.91,1.18-.06,1.88,.77,1.91,1.79l1.5,45.98c.03,1.02-.77,1.88-1.79,1.91h-.06Z"/>
        <path class="cls-45" d="M2654.05,2827.45c-.98,0-1.8-.77-1.85-1.76-.36-7.56-2.16-45.31-2.16-46.07,0-1.02,.83-1.85,1.85-1.85s1.84,.82,1.85,1.83c.02,1,1.42,30.47,2.15,45.91,.05,1.02-.74,1.89-1.76,1.93-.03,0-.06,0-.09,0Zm-.31-47.83h0Z"/>
        <path class="cls-72" d="M2666.38,2829.3c-1.98,0-3.62-1.57-3.69-3.57-1.56-44.55-1.29-45.56-1.11-46.22,.53-1.98,2.59-3.14,4.54-2.6,1.81,.5,2.94,2.25,2.7,4.06-.12,2.68,.71,28.6,1.26,44.5,.07,2.04-1.52,3.76-3.57,3.83-.04,0-.09,0-.13,0Z"/>
        <path class="cls-80" d="M2674.4,2827.45c-1.02,0-1.85-.83-1.85-1.85v-45.12c0-1.02,.83-1.85,1.85-1.85s1.85,.83,1.85,1.85v45.12c0,1.02-.83,1.85-1.85,1.85Z"/>
        <path class="cls-86" d="M2680.87,2827.45c-1,0-1.83-.8-1.85-1.81-.35-15.68-1.18-41.29-1.92-44.36-.33-.58-.32-1.32,.07-1.92,.56-.86,1.71-1.09,2.56-.53,1.01,.66,1.97,1.29,2.99,46.73,.02,1.02-.79,1.87-1.81,1.89h-.04Z"/>
        <path class="cls-46" d="M2630.3,2831.56c-1.95,0-3.59-1.53-3.69-3.51l-2.47-47.38c-.1-2.04,1.46-3.78,3.5-3.89,1.94-.14,3.78,1.46,3.89,3.5l2.47,47.38c.1,2.04-1.46,3.78-3.5,3.89-.07,0-.13,0-.2,0Z"/>
      </g>
    </g>
    <g>
      <path class="cls-60" d="M2139.83,3020.43c-25.64,.49-46.68-20.16-46.68-45.8v-203.84c0-26.78,21.52-48.57,48.3-48.86,80.37-.88,246.14-.92,381.77,10.51,18.51,1.56,32.9,16.73,33.58,35.29l12.68,197.07c.94,26.07-19.67,47.84-45.75,48.34l-383.89,7.3Z"/>
      <path class="cls-6" d="M2139.7,2792.85c-.34,17.34,.17,44.86,.6,62.64,.22,9.25,8.34,16.3,17.53,15.22l66.14-7.75c8.81-1.03,15.02-9.15,13.7-17.93l-8.12-54.16c-1.15-7.69-7.76-13.38-15.53-13.38h-58.62c-8.54,0-15.54,6.81-15.7,15.35Z"/>
      <path class="cls-10" d="M2312.55,2895.49l55.18,5.95c7.72,.83,14.31-5.53,13.74-13.28l-12.06-164.13c-23.13-.73-45.94-1.27-67.96-1.64v160.73c0,6.35,4.79,11.69,11.1,12.37Z"/>
      <path class="cls-6" d="M2335.17,2867.04c.17,2.95,2.62,5.23,5.54,5.23,.11,0,.22,0,.33-.01,3.06-.18,5.4-2.8,5.22-5.86l-8.32-143.25c-3.73-.09-7.43-.18-11.13-.26l8.37,144.15Z"/>
      <g>
        <path class="cls-20" d="M2170.29,2844.55c-.97,0-1.78-.75-1.85-1.73l-2.86-45.12c-.07-1.02,.71-1.9,1.73-1.96,1.07-.08,1.9,.71,1.96,1.73l2.86,45.12c.07,1.02-.71,1.9-1.73,1.96-.04,0-.08,0-.12,0Z"/>
        <path class="cls-81" d="M2176.18,2844.55c-.99,0-1.82-.79-1.85-1.79l-1.5-45.98c-.03-1.02,.77-1.88,1.79-1.91,1.18-.06,1.88,.77,1.91,1.79l1.5,45.98c.03,1.02-.77,1.88-1.79,1.91h-.06Z"/>
        <path class="cls-108" d="M2184.08,2844.55c-.98,0-1.8-.77-1.85-1.76-.36-7.56-2.16-45.31-2.16-46.07,0-1.02,.83-1.85,1.85-1.85s1.84,.82,1.85,1.83c.02,1,1.42,30.47,2.15,45.91,.05,1.02-.74,1.89-1.76,1.93-.03,0-.06,0-.09,0Zm-.31-47.83h0Z"/>
        <path class="cls-68" d="M2196.41,2846.4c-1.98,0-3.62-1.57-3.69-3.57-1.56-44.55-1.29-45.56-1.11-46.22,.53-1.98,2.59-3.14,4.54-2.6,1.81,.49,2.94,2.25,2.7,4.06-.12,2.68,.71,28.6,1.26,44.5,.07,2.04-1.52,3.76-3.57,3.83-.04,0-.09,0-.13,0Z"/>
        <path class="cls-89" d="M2204.43,2844.55c-1.02,0-1.85-.83-1.85-1.85v-45.12c0-1.02,.83-1.85,1.85-1.85s1.85,.83,1.85,1.85v45.12c0,1.02-.83,1.85-1.85,1.85Z"/>
        <path class="cls-94" d="M2210.9,2844.55c-1,0-1.83-.8-1.85-1.81-.35-15.68-1.18-41.29-1.92-44.36-.32-.58-.32-1.32,.07-1.92,.56-.86,1.71-1.09,2.56-.53,1.01,.66,1.97,1.29,2.99,46.73,.02,1.02-.79,1.87-1.81,1.89h-.04Z"/>
        <path class="cls-1" d="M2160.33,2848.66c-1.95,0-3.59-1.53-3.69-3.51l-2.47-47.38c-.1-2.04,1.46-3.78,3.5-3.89,1.94-.14,3.78,1.46,3.89,3.5l2.47,47.38c.1,2.04-1.46,3.78-3.5,3.89-.07,0-.13,0-.2,0Z"/>
      </g>
    </g>
    <g>
      <path class="cls-65" d="M2684.21,2677.55v-143.15c0-18.81,15.11-34.11,33.92-34.32,56.44-.61,172.86-.65,268.11,7.38,13,1.1,23.11,11.75,23.58,24.78l8.9,138.4c.66,18.31-13.81,33.6-32.13,33.95l-269.6,5.12c-18,.34-32.78-14.16-32.78-32.17Z"/>
      <path class="cls-6" d="M2716.9,2549.89c-.24,12.18,.12,31.51,.42,43.99,.15,6.5,5.86,11.45,12.31,10.69l46.45-5.44c6.19-.73,10.55-6.43,9.62-12.59l-5.7-38.04c-.81-5.4-5.45-9.39-10.91-9.39h-41.17c-6,0-10.91,4.78-11.03,10.78Z"/>
      <path class="cls-10" d="M2838.29,2621.97l38.75,4.18c5.42,.59,10.05-3.89,9.65-9.33l-8.47-115.27c-16.24-.52-32.27-.89-47.73-1.15v112.88c0,4.46,3.36,8.21,7.8,8.69Z"/>
      <path class="cls-6" d="M2854.18,2602c.12,2.07,1.84,3.67,3.89,3.67,.08,0,.15,0,.23,0,2.15-.12,3.79-1.97,3.66-4.12l-5.84-100.6c-2.62-.06-5.22-.12-7.82-.18l5.88,101.23Z"/>
      <g>
        <path class="cls-110" d="M2738.38,2586.2c-.68,0-1.25-.53-1.3-1.22l-2.01-31.69c-.05-.72,.5-1.33,1.22-1.38,.75-.06,1.33,.5,1.38,1.22l2.01,31.69c.05,.72-.5,1.33-1.22,1.38-.03,0-.06,0-.08,0Z"/>
        <path class="cls-29" d="M2742.52,2586.2c-.7,0-1.28-.55-1.3-1.26l-1.05-32.29c-.02-.72,.54-1.32,1.26-1.34,.83-.04,1.32,.54,1.34,1.26l1.05,32.29c.02,.72-.54,1.32-1.26,1.34h-.04Z"/>
        <path class="cls-83" d="M2748.07,2586.2c-.69,0-1.26-.54-1.3-1.24-.25-5.31-1.52-31.82-1.52-32.35,0-.72,.58-1.3,1.3-1.3s1.29,.58,1.3,1.29c.01,.71,1,21.4,1.51,32.24,.04,.72-.52,1.32-1.24,1.36-.02,0-.04,0-.06,0Zm-.22-33.59h0Z"/>
        <path class="cls-15" d="M2756.73,2587.5c-1.39,0-2.55-1.1-2.59-2.51-1.1-31.29-.91-31.99-.78-32.46,.38-1.39,1.82-2.2,3.19-1.82,1.27,.35,2.07,1.58,1.89,2.85-.08,1.88,.5,20.08,.89,31.25,.05,1.43-1.07,2.64-2.5,2.69-.03,0-.06,0-.09,0Z"/>
        <path class="cls-21" d="M2762.36,2586.2c-.72,0-1.3-.58-1.3-1.3v-31.69c0-.72,.58-1.3,1.3-1.3s1.3,.58,1.3,1.3v31.69c0,.72-.58,1.3-1.3,1.3Z"/>
        <path class="cls-55" d="M2766.91,2586.2c-.71,0-1.28-.56-1.3-1.27-.25-11.01-.83-28.99-1.35-31.16-.23-.41-.23-.93,.05-1.35,.39-.6,1.2-.77,1.8-.37,.71,.46,1.38,.9,2.1,32.82,.01,.72-.55,1.31-1.27,1.33h-.03Z"/>
        <path class="cls-74" d="M2731.39,2589.09c-1.37,0-2.52-1.08-2.59-2.46l-1.73-33.27c-.07-1.43,1.03-2.65,2.46-2.73,1.36-.1,2.65,1.03,2.73,2.46l1.73,33.27c.07,1.43-1.03,2.65-2.46,2.73-.05,0-.09,0-.14,0Z"/>
      </g>
    </g>
    <g>
      <path class="cls-36" d="M2393.2,2681.82v-143.15c0-18.81,13.06-34.11,29.32-34.32,48.78-.61,149.39-.65,231.7,7.38,11.23,1.1,19.97,11.75,20.38,24.78l7.69,138.4c.57,18.31-11.94,33.6-27.76,33.95l-232.99,5.12c-15.56,.34-28.33-14.16-28.33-32.17Z"/>
      <path class="cls-6" d="M2421.46,2554.16c-.21,12.18,.11,31.51,.36,43.99,.13,6.5,5.06,11.45,10.64,10.69l40.14-5.44c5.35-.73,9.12-6.43,8.32-12.59l-4.93-38.04c-.7-5.4-4.71-9.39-9.43-9.39h-35.58c-5.18,0-9.43,4.78-9.53,10.78Z"/>
      <path class="cls-10" d="M2526.37,2626.24l33.49,4.18c4.69,.59,8.68-3.89,8.34-9.33l-7.32-115.27c-14.04-.52-27.88-.89-41.25-1.15v112.88c0,4.46,2.91,8.21,6.74,8.69Z"/>
      <path class="cls-6" d="M2540.09,2606.27c.1,2.07,1.59,3.67,3.36,3.67,.07,0,.13,0,.2,0,1.86-.12,3.28-1.97,3.17-4.12l-5.05-100.6c-2.26-.06-4.51-.12-6.76-.18l5.08,101.23Z"/>
      <g>
        <path class="cls-58" d="M2440.02,2590.47c-.59,0-1.08-.53-1.12-1.22l-1.74-31.69c-.04-.72,.43-1.33,1.05-1.38,.65-.06,1.15,.5,1.19,1.22l1.74,31.69c.04,.72-.43,1.33-1.05,1.38-.02,0-.05,0-.07,0Z"/>
        <path class="cls-48" d="M2443.6,2590.47c-.6,0-1.1-.55-1.12-1.26l-.91-32.29c-.02-.72,.47-1.32,1.09-1.34,.72-.04,1.14,.54,1.16,1.26l.91,32.29c.02,.72-.47,1.32-1.09,1.34h-.04Z"/>
        <path class="cls-12" d="M2448.39,2590.47c-.6,0-1.09-.54-1.12-1.24-.22-5.31-1.31-31.82-1.31-32.35,0-.72,.5-1.3,1.12-1.3s1.12,.58,1.12,1.29c.01,.71,.86,21.4,1.31,32.24,.03,.72-.45,1.32-1.07,1.36-.02,0-.04,0-.05,0Zm-.19-33.59h0Z"/>
        <path class="cls-84" d="M2455.87,2591.77c-1.2,0-2.2-1.1-2.24-2.51-.95-31.29-.78-31.99-.67-32.46,.32-1.39,1.57-2.2,2.76-1.82,1.1,.35,1.79,1.58,1.64,2.85-.07,1.88,.43,20.08,.77,31.25,.04,1.43-.93,2.64-2.16,2.69-.03,0-.05,0-.08,0Z"/>
        <path class="cls-70" d="M2460.74,2590.47c-.62,0-1.12-.58-1.12-1.3v-31.69c0-.72,.5-1.3,1.12-1.3s1.12,.58,1.12,1.3v31.69c0,.72-.5,1.3-1.12,1.3Z"/>
        <path class="cls-112" d="M2464.67,2590.47c-.61,0-1.11-.56-1.12-1.27-.22-11.01-.72-28.99-1.17-31.16-.2-.41-.2-.93,.04-1.35,.34-.6,1.04-.77,1.55-.37,.61,.46,1.19,.9,1.82,32.82,.01,.72-.48,1.31-1.1,1.33h-.03Z"/>
        <path class="cls-33" d="M2433.98,2593.35c-1.19,0-2.18-1.08-2.24-2.46l-1.5-33.27c-.06-1.43,.89-2.65,2.13-2.73,1.18-.1,2.29,1.03,2.36,2.46l1.5,33.27c.06,1.43-.89,2.65-2.13,2.73-.04,0-.08,0-.12,0Z"/>
      </g>
    </g>
    <g>
      <path class="cls-14" d="M2102.75,2690.65v-143.15c0-18.81,13.06-34.11,29.32-34.32,48.78-.61,149.39-.65,231.7,7.38,11.23,1.1,19.97,11.75,20.38,24.78l7.69,138.4c.57,18.31-11.94,33.6-27.76,33.95l-232.99,5.12c-15.56,.34-28.33-14.16-28.33-32.17Z"/>
      <path class="cls-6" d="M2131,2562.99c-.21,12.18,.11,31.51,.36,43.99,.13,6.5,5.06,11.45,10.64,10.69l40.14-5.44c5.35-.73,9.12-6.43,8.32-12.59l-4.93-38.04c-.7-5.4-4.71-9.39-9.43-9.39h-35.58c-5.18,0-9.43,4.78-9.53,10.78Z"/>
      <path class="cls-10" d="M2235.91,2635.08l33.49,4.18c4.69,.59,8.68-3.89,8.34-9.33l-7.32-115.27c-14.04-.52-27.88-.89-41.25-1.15v112.88c0,4.46,2.91,8.21,6.74,8.69Z"/>
      <path class="cls-6" d="M2249.64,2615.1c.1,2.07,1.59,3.67,3.36,3.67,.07,0,.13,0,.2,0,1.86-.12,3.28-1.97,3.17-4.12l-5.05-100.6c-2.26-.06-4.51-.12-6.76-.18l5.08,101.23Z"/>
      <g>
        <path class="cls-13" d="M2149.64,2599.3s-.05,0-.07,0c-.59,0-1.08-.53-1.12-1.22l-1.74-31.69c-.04-.72,.43-1.33,1.05-1.38,.65-.06,1.15,.5,1.19,1.22l1.74,31.69c.04,.72-.43,1.33-1.05,1.38Z"/>
        <path class="cls-102" d="M2153.14,2599.3c-.6,0-1.1-.55-1.12-1.26l-.91-32.29c-.02-.72,.47-1.32,1.09-1.34,.72-.04,1.14,.54,1.16,1.26l.91,32.29c.02,.72-.47,1.32-1.09,1.34h-.04Z"/>
        <path class="cls-47" d="M2157.94,2599.3c-.6,0-1.09-.54-1.12-1.24-.22-5.31-1.31-31.82-1.31-32.35,0-.72,.5-1.3,1.12-1.3s1.12,.58,1.12,1.29c.01,.71,.86,21.4,1.31,32.24,.03,.72-.45,1.32-1.07,1.36-.02,0-.04,0-.05,0Zm-.19-33.59h0Z"/>
        <path class="cls-87" d="M2165.5,2600.6s-.05,0-.08,0c-1.2,0-2.2-1.1-2.24-2.51-.95-31.29-.78-31.99-.67-32.46,.32-1.39,1.57-2.2,2.76-1.82,1.1,.35,1.79,1.58,1.64,2.85-.07,1.88,.43,20.08,.77,31.25,.04,1.43-.93,2.64-2.16,2.69Z"/>
        <path class="cls-41" d="M2170.29,2599.3c-.62,0-1.12-.58-1.12-1.3v-31.69c0-.72,.5-1.3,1.12-1.3s1.12,.58,1.12,1.3v31.69c0,.72-.5,1.3-1.12,1.3Z"/>
        <path class="cls-66" d="M2174.22,2599.3c-.61,0-1.11-.56-1.12-1.27-.22-11.01-.72-28.99-1.17-31.16-.2-.41-.2-.93,.04-1.35,.34-.6,1.04-.77,1.55-.37,.61,.46,1.19,.9,1.82,32.82,.01,.72-.48,1.31-1.1,1.33h-.03Z"/>
        <path class="cls-96" d="M2143.64,2602.18s-.08,0-.12,0c-1.19,0-2.18-1.08-2.24-2.46l-1.5-33.27c-.06-1.43,.89-2.65,2.13-2.73,1.18-.1,2.29,1.03,2.36,2.46l1.5,33.27c.06,1.43-.89,2.65-2.13,2.73Z"/>
      </g>
    </g>
  </g>
  <g>
    <path class="cls-90" d="M1207.29,1293.2c-.8,0-1.6-.09-2.41-.29l-20.14-4.81c-5.56-1.33-9-6.91-7.67-12.48,1.33-5.57,6.91-9,12.48-7.67l20.14,4.81c5.56,1.33,9,6.91,7.67,12.48-1.13,4.76-5.38,7.95-10.06,7.95Z"/>
    <path class="cls-120" d="M1152.58,1280.15c-.8,0-1.6-.09-2.41-.29l-34.57-8.25c-5.56-1.33-9-6.91-7.67-12.48,1.33-5.57,6.91-8.99,12.48-7.67l34.57,8.25c5.56,1.33,9,6.91,7.67,12.48-1.13,4.76-5.38,7.95-10.06,7.95Z"/>
    <path class="cls-73" d="M1060.77,1279.39c-.42,0-.85-.02-1.29-.08-5.67-.7-9.71-5.88-9-11.55l3.97-32.05,31.4,7.5c5.56,1.33,8.99,6.91,7.67,12.48-1.33,5.57-6.9,8.99-12.48,7.67l-8.88-2.12-1.12,9.06c-.65,5.24-5.11,9.08-10.26,9.08Z"/>
    <path class="cls-61" d="M1048.85,1375.61c-.42,0-.85-.02-1.29-.08-5.68-.7-9.71-5.88-9-11.55l5.96-48.11c.7-5.68,5.88-9.72,11.55-9,5.68,.7,9.71,5.88,9,11.55l-5.96,48.11c-.65,5.24-5.11,9.08-10.26,9.08Z"/>
    <path class="cls-37" d="M1059.68,1451.67c-1.23,0-2.48-.22-3.69-.68l-26.92-10.29,3.54-28.6c.7-5.67,5.89-9.7,11.55-9,5.68,.7,9.71,5.88,9,11.55l-1.55,12.5,11.77,4.5c5.34,2.04,8.02,8.03,5.98,13.37-1.58,4.13-5.51,6.66-9.67,6.66Z"/>
    <path class="cls-91" d="M1438.93,1665.55c-3.25,0-6.45-1.52-8.47-4.38l-25.97-36.77c-3.3-4.67-2.19-11.13,2.48-14.43,4.67-3.3,11.13-2.19,14.43,2.48l25.97,36.77c3.3,4.67,2.19,11.13-2.48,14.43-1.81,1.28-3.9,1.9-5.96,1.9Zm-51.95-73.55c-3.25,0-6.45-1.52-8.47-4.38l-13.01-18.42-15.1-5.77c-5.34-2.04-8.02-8.03-5.98-13.37,2.04-5.34,8.03-8.03,13.37-5.98l20.99,8.02,16.65,23.57c3.3,4.67,2.19,11.13-2.48,14.43-1.82,1.28-3.9,1.9-5.97,1.9Zm-74.95-43.95c-1.23,0-2.48-.22-3.69-.68l-42.06-16.06c-5.34-2.04-8.02-8.03-5.98-13.37,2.04-5.34,8.03-8.02,13.37-5.98l42.06,16.06c5.34,2.04,8.02,8.03,5.98,13.37-1.58,4.13-5.51,6.66-9.68,6.66Zm-84.12-32.13c-1.23,0-2.48-.22-3.69-.68l-42.06-16.07c-5.34-2.04-8.02-8.03-5.98-13.37,2.04-5.34,8.03-8.03,13.37-5.98l42.06,16.07c5.34,2.04,8.02,8.03,5.98,13.37-1.58,4.13-5.51,6.66-9.68,6.66Zm-84.12-32.13c-1.23,0-2.48-.22-3.69-.68l-42.06-16.07c-5.34-2.04-8.02-8.03-5.98-13.37,2.04-5.34,8.03-8.03,13.37-5.98l42.06,16.06c5.34,2.04,8.02,8.03,5.98,13.37-1.58,4.13-5.51,6.66-9.68,6.66Z"/>
    <path class="cls-44" d="M1497.49,1721.06c-.31,0-.62-.01-.93-.04l-25.41-2.25-14.72-20.84c-3.3-4.67-2.19-11.13,2.48-14.43,4.67-3.3,11.13-2.19,14.43,2.48l9.18,13,15.85,1.41c5.7,.51,9.91,5.53,9.4,11.23-.48,5.39-5,9.44-10.3,9.44Z"/>
    <path class="cls-63" d="M2472.25,2058.63c-1.33,0-2.68-.26-3.98-.8l-36.9-15.38c-5.28-2.2-7.77-8.26-5.57-13.54s8.26-7.79,13.54-5.57l36.9,15.38c5.28,2.2,7.77,8.26,5.57,13.54-1.66,3.98-5.51,6.37-9.56,6.37Zm-73.8-30.76c-1.33,0-2.68-.26-3.98-.8l-36.9-15.38c-5.28-2.2-7.77-8.27-5.57-13.54,2.2-5.28,8.27-7.77,13.54-5.58l36.9,15.38c5.28,2.2,7.77,8.27,5.57,13.54-1.66,3.98-5.51,6.37-9.56,6.37Zm-73.8-30.76c-1.33,0-2.68-.26-3.98-.8l-36.9-15.38c-5.28-2.2-7.77-8.27-5.57-13.54,2.2-5.28,8.25-7.78,13.54-5.58l36.9,15.38c5.28,2.2,7.77,8.27,5.57,13.54-1.66,3.98-5.51,6.37-9.56,6.37Zm-73.8-30.76c-1.33,0-2.68-.26-3.98-.8l-36.9-15.38c-5.28-2.2-7.77-8.27-5.57-13.54,2.2-5.28,8.25-7.77,13.54-5.58l36.9,15.38c5.28,2.2,7.77,8.27,5.57,13.54-1.66,3.98-5.51,6.37-9.56,6.37Zm-73.8-30.76c-1.33,0-2.68-.26-3.98-.8l-36.9-15.38c-5.28-2.2-7.77-8.27-5.57-13.54,2.2-5.28,8.25-7.78,13.54-5.58l36.9,15.38c5.28,2.2,7.77,8.27,5.57,13.54-1.66,3.98-5.51,6.37-9.56,6.37Zm-73.8-30.76c-1.33,0-2.68-.26-3.98-.8l-36.9-15.38c-5.28-2.2-7.77-8.27-5.57-13.54,2.2-5.28,8.25-7.78,13.54-5.58l36.9,15.38c5.28,2.2,7.77,8.27,5.57,13.54-1.66,3.98-5.51,6.37-9.56,6.37Zm-73.8-30.76c-1.33,0-2.68-.26-3.98-.8l-36.9-15.38c-5.28-2.2-7.77-8.27-5.57-13.54,2.2-5.28,8.27-7.77,13.54-5.58l36.9,15.38c5.28,2.2,7.77,8.27,5.57,13.54-1.66,3.98-5.51,6.37-9.56,6.37Zm-73.8-30.76c-1.33,0-2.68-.26-3.98-.8l-36.9-15.38c-5.28-2.2-7.77-8.27-5.57-13.54,2.2-5.28,8.26-7.78,13.54-5.58l36.9,15.38c5.28,2.2,7.77,8.27,5.57,13.54-1.66,3.98-5.51,6.37-9.56,6.37Zm-73.8-30.76c-1.33,0-2.68-.26-3.98-.8l-36.9-15.38c-5.28-2.2-7.77-8.27-5.57-13.54,2.2-5.28,8.26-7.78,13.54-5.58l36.9,15.38c5.28,2.2,7.77,8.27,5.57,13.54-1.66,3.98-5.51,6.37-9.56,6.37Zm-73.8-30.76c-1.33,0-2.68-.26-3.98-.8l-36.9-15.38c-5.28-2.2-7.77-8.26-5.57-13.54,2.2-5.28,8.27-7.79,13.54-5.57l36.9,15.38c5.28,2.2,7.77,8.26,5.57,13.54-1.66,3.98-5.51,6.37-9.56,6.37Zm-73.8-30.76c-1.33,0-2.68-.26-3.98-.8l-25.81-10.76-8.77-.78c-5.7-.5-9.91-5.53-9.4-11.23,.5-5.69,5.54-9.91,11.23-9.4l11.96,1.06,28.77,11.99c5.28,2.2,7.77,8.27,5.57,13.54-1.66,3.98-5.51,6.37-9.56,6.37Zm-77.47-15.83c-.31,0-.61-.01-.93-.04l-39.82-3.53c-5.7-.51-9.9-5.53-9.4-11.23,.5-5.7,5.53-9.91,11.23-9.4l39.82,3.53c5.7,.51,9.9,5.53,9.4,11.23-.48,5.39-5,9.44-10.3,9.44Zm-79.64-7.06c-.31,0-.61-.01-.93-.04l-39.82-3.53c-5.7-.51-9.9-5.53-9.4-11.23s5.52-9.88,11.23-9.4l39.82,3.53c5.7,.51,9.9,5.53,9.4,11.23-.48,5.39-5,9.44-10.3,9.44Z"/>
    <path class="cls-35" d="M2528.27,2081.98c-1.33,0-2.68-.26-3.98-.8l-19.12-7.97c-5.28-2.2-7.77-8.27-5.57-13.54,2.2-5.28,8.26-7.79,13.54-5.58l19.12,7.97c5.28,2.2,7.77,8.27,5.57,13.54-1.66,3.98-5.51,6.37-9.56,6.37Z"/>
  </g>
  <circle class="cls-16" cx="1443.51" cy="1663.41" r="39.02" transform="translate(-507.05 2686.14) rotate(-76.72)"/>
</svg>